<?xml version="1.0" encoding="utf-8"?>
<!-- Generator: Adobe Illustrator 25.2.1, SVG Export Plug-In . SVG Version: 6.00 Build 0)  -->
<svg version="1.1" id="Capa_1" xmlns="http://www.w3.org/2000/svg" xmlns:xlink="http://www.w3.org/1999/xlink" x="0px" y="0px"
	 viewBox="0 0 10 6" style="enable-background:new 0 0 10 6;" xml:space="preserve">
<style type="text/css">
	.st0{fill:#FFFFFF;}
</style>
<path class="st0" d="M9.5,3.1C9.8,3.5,9.6,4.4,9,4.9C8.5,5.3,8,4.9,6.1,4.9c-1.2,0-1.4,0.1-2.7,0c0,0-0.7-0.1-1.8-0.4
	c-0.8-0.2-1-0.3-1-0.5C0.6,3.7,1.2,3,1.8,3C2.3,3,2.5,3.5,3,3.3c0.3-0.1,0.3-0.3,0.6-0.6c0.6-0.6,1.3-0.3,1.6-0.7
	c0.4-0.5-0.3-1.4,0-1.7c0.2-0.2,0.7-0.1,1,0.1C7.1,1,6.6,2.3,7.5,2.9C8.2,3.4,9.1,2.7,9.5,3.1z"/>
</svg>
