<?xml version="1.0" encoding="utf-8"?>
<!-- Generator: Adobe Illustrator 25.2.1, SVG Export Plug-In . SVG Version: 6.00 Build 0)  -->
<svg version="1.1" id="Capa_1" xmlns="http://www.w3.org/2000/svg" xmlns:xlink="http://www.w3.org/1999/xlink" x="0px" y="0px"
	 viewBox="0 0 10 6" style="enable-background:new 0 0 10 6;" xml:space="preserve">
<style type="text/css">
	.st0{fill:#FFFFFF;}
</style>
<path class="st0" d="M7.7,4c0.1,0.3,1.4-0.1,1.5,0.2C9.3,4.4,9,4.7,8.7,4.9c-1,0.7-2,0-3.8-0.1C2.6,4.7,0.9,5.7,0.7,5.3
	C0.6,5.1,0.9,4.7,0.9,4.7c0.2-0.2,0.4-0.3,1-0.5c0.8-0.3,1.1-0.3,1.1-0.4c0-0.2-1-0.2-1.3-0.7C1.7,2.7,1.7,2.3,2,2.1
	c0.4-0.3,1.3,0.4,1.6,0.1c0.2-0.2,0-0.4,0.1-0.7c0.2-0.8,1.4-1.1,2.3-1.2c0.5,0,1.5,0.1,1.7,0.5C7.7,1.3,7,1.7,7.1,2.1
	c0.2,0.5,1.6,0.2,1.7,0.6C8.9,3.1,7.6,3.7,7.7,4z"/>
</svg>
