<?xml version="1.0" encoding="utf-8"?>
<!-- Generator: Adobe Illustrator 25.2.1, SVG Export Plug-In . SVG Version: 6.00 Build 0)  -->
<svg version="1.1" id="Capa_1" xmlns="http://www.w3.org/2000/svg" xmlns:xlink="http://www.w3.org/1999/xlink" x="0px" y="0px"
	 viewBox="0 0 10 6" style="enable-background:new 0 0 10 6;" xml:space="preserve">
<style type="text/css">
	.st0{fill:#FFFFFF;}
</style>
<path class="st0" d="M9.5,3.1C9.7,3.7,9.4,4.4,9,4.9C8.2,5.8,6.8,5.7,6.1,5.6C4.9,5.5,5,5.1,3.4,4.9c-0.1,0-0.9-0.1-1.8-0.4
	c-0.8-0.2-1-0.3-1-0.5C0.6,3.7,1.8,3.5,1.8,3c0-0.5-1.2-0.8-1.2-1c0.1-0.3,2,0.4,3.1-0.5c0.2-0.1,0.4-0.4,0.7-0.4
	c0.4,0,0.5,0.4,0.8,0.4c0.4,0,0.5-0.9,1-1c0.5-0.1,0.8,0.7,2.2,1.7C9.1,2.7,9.4,2.7,9.5,3.1z"/>
</svg>
