<?xml version="1.0" encoding="utf-8"?>
<!-- Generator: Adobe Illustrator 25.2.1, SVG Export Plug-In . SVG Version: 6.00 Build 0)  -->
<svg version="1.1" id="Capa_1" xmlns="http://www.w3.org/2000/svg" xmlns:xlink="http://www.w3.org/1999/xlink" x="0px" y="0px"
	 viewBox="0 0 10 6" style="enable-background:new 0 0 10 6;" xml:space="preserve">
<style type="text/css">
	.st0{fill:#FFFFFF;}
</style>
<path class="st0" d="M9.5,3.1C9.7,3.6,9.9,4,9.6,4.4C9.5,4.7,9.1,4.9,9,4.9c-0.5,0.4-1,0-2.9,0c-1.2,0-1.4,0.1-2.7,0
	c0,0-0.7-0.1-1.8-0.4C1.1,4.4,0.8,4.2,0.6,4C0.2,3.5,0.4,2.4,0.9,1.8C1.1,1.7,1.5,1.2,2.2,1c0.2,0,0.9-0.1,1.4,0.2
	c0.3,0.2,0.3,0.4,0.7,0.6C4.7,2,4.8,1.9,5.1,2c0.4,0.2,0.8,0.3,1,0.4c0.6,0.3,0.7,0.4,1,0.3c0.3,0,0.3-0.2,0.8-0.4
	c0.3-0.1,0.7-0.3,1-0.2C9.2,2.3,9.3,2.6,9.5,3.1z"/>
</svg>
