<?xml version="1.0" encoding="utf-8"?>
<!-- Generator: Adobe Illustrator 25.2.1, SVG Export Plug-In . SVG Version: 6.00 Build 0)  -->
<svg version="1.1" id="Capa_1" xmlns="http://www.w3.org/2000/svg" xmlns:xlink="http://www.w3.org/1999/xlink" x="0px" y="0px"
	 viewBox="0 0 10 6" style="enable-background:new 0 0 10 6;" xml:space="preserve">
<style type="text/css">
	.st0{fill:#FFFFFF;}
</style>
<path class="st0" d="M8.8,3.8C9.2,4,9.6,4.5,9.5,4.8C9.3,5.1,8.3,5.1,7.7,5c-1-0.1-1.2-0.3-2.2-0.3c-0.6,0-1.1,0-1.7,0.1
	C2.3,4.9,1.9,5.1,1.6,4.9C1.1,4.5,1.1,3.6,1.4,3.4c0.3-0.2,1,0.5,1.5,0.2c0.4-0.2,0.2-1,0.6-1.2c0.4-0.2,0.9,0.4,1.2,0.1
	C4.9,2.4,4.8,1.9,5,1.7c0.3-0.2,0.7,0,0.8,0.1C6.2,2,6.4,2.3,6.6,2.5c0.2,0.3,0.3,0.4,0.2,0.6c0,0.3-0.4,0.4-0.4,0.6
	C6.5,3.9,6.9,4,7.3,4C8.1,4,8.3,3.7,8.8,3.8z"/>
</svg>
