<?xml version="1.0" encoding="utf-8"?>
<!-- Generator: Adobe Illustrator 25.2.1, SVG Export Plug-In . SVG Version: 6.00 Build 0)  -->
<svg version="1.1" id="Capa_1" xmlns="http://www.w3.org/2000/svg" xmlns:xlink="http://www.w3.org/1999/xlink" x="0px" y="0px"
	 viewBox="0 0 10 6" style="enable-background:new 0 0 10 6;" xml:space="preserve">
<style type="text/css">
	.st0{fill:#FFFFFF;}
</style>
<path class="st0" d="M8.8,3.8C8.9,4,9.2,4.5,9,4.9C8.7,5.7,6.5,5.5,6.1,5.5C4.8,5.4,4.9,5.1,3.4,4.9c-1-0.1-1.6,0-1.8-0.4
	c-0.2-0.3,0-0.9,0.3-1.2c0.5-0.5,1,0,1.8-0.3c0.9-0.4,0.8-1.4,1.7-1.6c0.5-0.1,0.9,0.1,1.2,0.3C7,1.9,7,2.1,7.8,2.8
	C8.4,3.4,8.6,3.4,8.8,3.8z"/>
</svg>
