<?xml version="1.0" encoding="utf-8"?>
<!-- Generator: Adobe Illustrator 25.2.1, SVG Export Plug-In . SVG Version: 6.00 Build 0)  -->
<svg version="1.1" id="Capa_1" xmlns="http://www.w3.org/2000/svg" xmlns:xlink="http://www.w3.org/1999/xlink" x="0px" y="0px"
	 viewBox="0 0 10 6" style="enable-background:new 0 0 10 6;" xml:space="preserve">
<style type="text/css">
	.st0{fill:#FFFFFF;}
</style>
<path class="st0" d="M7.7,4c0,0.5,1.1,0.7,1,0.9C8.7,5.2,6.8,5.1,5,4.9C3.4,4.7,2,4.3,2,4.1c0-0.2,1.1-0.2,1.1-0.4
	c0-0.3-1.3-0.5-1.3-0.7c0-0.2,1.4-0.1,1.8-0.7c0.2-0.3-0.1-0.5,0.1-0.7C4,1.1,4.9,1.5,7.1,2.1c1.1,0.3,1.7,0.3,1.7,0.6
	C8.9,3.1,7.7,3.4,7.7,4z"/>
</svg>
