<?xml version="1.0" encoding="utf-8"?>
<!-- Generator: Adobe Illustrator 25.2.1, SVG Export Plug-In . SVG Version: 6.00 Build 0)  -->
<svg version="1.1" id="Capa_1" xmlns="http://www.w3.org/2000/svg" xmlns:xlink="http://www.w3.org/1999/xlink" x="0px" y="0px"
	 viewBox="0 0 10 6" style="enable-background:new 0 0 10 6;" xml:space="preserve">
<style type="text/css">
	.st0{fill:#FFFFFF;}
</style>
<path class="st0" d="M8.8,3.8C8.9,3.9,9.1,4.3,9,4.7c0,0,0,0.1,0,0.1C8.8,5.5,6.9,6.2,6.1,5.5C5.7,5.2,5.8,4.9,5.5,4.7
	C4.8,4.4,4.1,5,3.8,4.8C3.6,4.5,3.9,4.2,3.7,3.8C3.4,3.4,2.5,3.8,1.9,3.3C1.3,2.8,1.4,1.3,2.1,0.8C2.7,0.4,3.3,1.3,5,1.2
	c0.9-0.1,1.2-0.4,1.5-0.1c0.6,0.4,0,1.6,0.6,2.2C7.7,3.7,8.4,3.3,8.8,3.8z"/>
</svg>
