<?xml version="1.0" encoding="utf-8"?>
<!-- Generator: Adobe Illustrator 25.2.1, SVG Export Plug-In . SVG Version: 6.00 Build 0)  -->
<svg version="1.1" id="Capa_1" xmlns="http://www.w3.org/2000/svg" xmlns:xlink="http://www.w3.org/1999/xlink" x="0px" y="0px"
	 viewBox="0 0 10 6" style="enable-background:new 0 0 10 6;" xml:space="preserve">
<style type="text/css">
	.st0{fill:#FFFFFF;}
</style>
<path class="st0" d="M9.3,2.3c0,0.6-0.9,1.1-1.7,1.2C6.4,3.7,6.1,2.8,5,3.1c-0.6,0.1-1.3,0.5-2.1,1C2.5,4.3,2.1,4.6,1.6,4.6
	c-0.4,0-1-0.2-1-0.5c0-0.4,0.8-0.4,1.2-1.1c0.4-0.8-0.3-1.6,0-1.9c0.3-0.3,1,0.6,1.8,0.4C4.1,1.4,4.1,1.1,4.6,1
	C5.4,0.9,6,1.9,6.2,1.7c0.2-0.1-0.4-0.9-0.1-1.2C6.4,0.1,7.5,0.6,8.2,1C8.7,1.4,9.4,1.8,9.3,2.3z"/>
</svg>
