<?xml version="1.0" encoding="utf-8"?>
<!-- Generator: Adobe Illustrator 25.2.1, SVG Export Plug-In . SVG Version: 6.00 Build 0)  -->
<svg version="1.1" id="Capa_1" xmlns="http://www.w3.org/2000/svg" xmlns:xlink="http://www.w3.org/1999/xlink" x="0px" y="0px"
	 viewBox="0 0 28.3 28.3" style="enable-background:new 0 0 28.3 28.3;" xml:space="preserve">
<style type="text/css">
	.st0{fill:#D3D3D3;}
	.st1{fill:#E2E2E1;}
	.st2{fill:none;}
	.st3{fill:#D7D8D8;}
</style>
<path class="st0" d="M25.4,23c-3.7,0-7.5-0.1-11.3-0.3c-3-0.1-6-0.3-8.9-0.4c-0.4-1-0.8-2.5-1-4.2c0-0.5-0.5-7.1,3.2-11.2
	c3.8-4.1,11.3-4.9,18-1.3C25.4,11.4,25.4,17.2,25.4,23z"/>
<path class="st1" d="M21,18.1c-2.6-0.3-5.6-0.6-8.9-0.6c-2.9,0-5.5,0.2-7.8,0.5C4.4,13.7,4.4,9.3,4.5,5c3.3-0.7,6-1.1,8-1.4
	c2.2-0.3,3.8-0.4,5.7-0.2c1.1,0.1,2,0.3,2.7,0.5C21,8.6,21,13.4,21,18.1z"/>
<line class="st2" x1="4" y1="18.1" x2="4.5" y2="22.3"/>
<line class="st2" x1="21.2" y1="18.1" x2="25.4" y2="23"/>
<line class="st2" x1="20.8" y1="3.5" x2="25.1" y2="5.7"/>
<path class="st3" d="M25.4,23c-6.7-0.2-13.5-0.5-20.2-0.7c-0.3-1.4-0.6-2.8-1-4.2c2.7-0.3,5.9-0.6,9.4-0.5c2.7,0,5.1,0.2,7.3,0.5
	C22.5,19.8,23.9,21.4,25.4,23z"/>
</svg>
