<?xml version="1.0" encoding="utf-8"?>
<!-- Generator: Adobe Illustrator 25.2.1, SVG Export Plug-In . SVG Version: 6.00 Build 0)  -->
<svg version="1.1" id="Capa_1" xmlns="http://www.w3.org/2000/svg" xmlns:xlink="http://www.w3.org/1999/xlink" x="0px" y="0px"
	 viewBox="0 0 28.4 28.4" style="enable-background:new 0 0 28.4 28.4;" xml:space="preserve">
<style type="text/css">
	.st0{fill:#E8E8E8;}
</style>
<path class="st0" d="M21.8,15c-2.1,0.2-4.3,0.5-6.4,0.7V9.5c2.1,0.3,4.3,0.6,6.4,0.9C21.8,11.9,21.8,13.4,21.8,15z"/>
<path class="st0" d="M26.9,16.2c-0.8-0.5-1.7-0.9-2.6-1.3c-1.7-0.7-3.3-1-4.7-1.2c0.2-0.7,0.5-1.4,0.7-2c1.3,0.3,2.7,0.6,4.2,1.2
	c1.1,0.4,2.2,0.9,3.1,1.4c0,0.1,0.2,0.6,0,1.2C27.5,15.9,27,16.1,26.9,16.2z"/>
<path class="st0" d="M7.1,13.5H1.4c-0.1-0.3-0.2-0.8-0.2-1.3c0-0.5,0.1-0.9,0.2-1.3c1.9,0,3.8,0,5.7,0V13.5z"/>
<path class="st0" d="M11.8,15.2c-2.7-0.2-5.4-0.4-8.1-0.6c0-1.4,0-2.8,0-4.2c2.7-0.3,5.4-0.7,8.1-1c0.1,0.9,0.2,1.9,0.2,3
	C12,13.4,11.9,14.4,11.8,15.2z"/>
<path class="st0" d="M13.7,14.5H11v-0.8h2.7c0,0,0.1,0.2,0.1,0.4C13.9,14.3,13.8,14.4,13.7,14.5z"/>
<path class="st0" d="M13.7,11H11v-0.8h2.7c0,0,0.2,0.2,0.2,0.4C13.9,10.8,13.8,11,13.7,11z"/>
<rect x="15" y="12.9" class="st0" width="1.4" height="2.4"/>
<rect x="15" y="10" class="st0" width="1.4" height="2.4"/>
</svg>
