<?xml version="1.0" encoding="utf-8"?>
<!-- Generator: Adobe Illustrator 25.2.1, SVG Export Plug-In . SVG Version: 6.00 Build 0)  -->
<svg version="1.1" id="Capa_1" xmlns="http://www.w3.org/2000/svg" xmlns:xlink="http://www.w3.org/1999/xlink" x="0px" y="0px"
	 viewBox="0 0 42.5 28.3" style="enable-background:new 0 0 42.5 28.3;" xml:space="preserve">
<style type="text/css">
	.st0{fill:#D8D8D8;}
</style>
<rect x="1.8" y="0.5" class="st0" width="0.9" height="25.6"/>
<path class="st0" d="M41,25.5c-2.1,0.1-5.3,0.2-9.1,0.5c-5.3,0.4-8.7,0.9-10.6,1.1c-4.4,0.5-10.8,0.5-19.5-1.5c0,0.3,0,0.6,0,0.9
	c8.7,2.1,15.1,1.9,19.5,1.3c2.1-0.3,5.8-1,11.3-1.3c3.6-0.2,6.5-0.1,8.5,0C41,26.1,41,25.8,41,25.5z"/>
<path class="st0" d="M41,0.2c-2,0-5.1,0-8.8,0.3c-6,0.4-9.2,1-12.2,1.2C15.7,2.1,9.6,2.1,1.8,0.2c0,0.3,0,0.6,0,0.9
	c7.8,1.7,14,1.6,18.2,1.3c2.9-0.3,6.3-0.8,12.2-1.1c3.7-0.2,6.8-0.2,8.8-0.2C41,0.8,41,0.5,41,0.2z"/>
<rect x="40" y="0.2" class="st0" width="0.9" height="26.3"/>
<path class="st0" d="M41,12.4c-2.6,0-6.4,0.1-11.1,0.4c-4.7,0.3-7.2,0.7-9.5,0.9C16.1,14,9.9,14,1.8,12.4c0,0.3,0,0.6,0,0.9
	c8.1,1.6,14.4,1.5,18.8,1.1c2.4-0.2,5.3-0.7,10.2-0.9c4.3-0.2,7.8-0.2,10.2-0.1C41,13,41,12.7,41,12.4z"/>
<rect x="16" y="1.7" class="st0" width="0.9" height="12.7"/>
<polygon class="st0" points="11.6,9.5 9.4,8.3 7.1,9.5 7.5,7 5.7,5.2 8.2,4.8 9.4,2.5 10.5,4.8 13,5.2 11.2,7 "/>
<path class="st0" d="M30.2,12"/>
</svg>
