<?xml version="1.0" encoding="utf-8"?>
<!-- Generator: Adobe Illustrator 25.2.1, SVG Export Plug-In . SVG Version: 6.00 Build 0)  -->
<svg version="1.1" id="carta00" xmlns="http://www.w3.org/2000/svg" xmlns:xlink="http://www.w3.org/1999/xlink" x="0px" y="0px"
	 viewBox="0 0 28.35 17.01" style="enable-background:new 0 0 28.35 17.01;" xml:space="preserve">
<style type="text/css">
	.st0{fill:#EAEAEA;stroke:#FFFFFF;stroke-width:0.1;stroke-miterlimit:10;}
	.st1{fill:#8E8D7E;}
	.st2{fill:#CBBBA0;}
	.st3{fill:#9E9E97;}
	.st4{fill:#B5AFA5;}
</style>
<g>
	<path id="carta" class="st0" d="M27.71,15.72H0.96c-0.2-2.26-0.33-4.74-0.32-7.4C0.64,5.8,0.77,3.45,0.96,1.29
		c8.92,0,17.83,0,26.75,0c-0.15,2.22-0.25,4.6-0.25,7.1C27.46,10.98,27.55,13.43,27.71,15.72z"/>
	<path class="st1" d="M0.96,1.29c2.01,1.56,4.41,3.23,7.21,4.82c2.18,1.23,4.25,2.23,6.16,3.04"/>
	<path class="st2" d="M27.71,1.29c-1.5,1.22-3.25,2.5-5.25,3.75c-2.92,1.82-5.7,3.14-8.12,4.11"/>
	<line class="st3" x1="0.96" y1="15.72" x2="12.26" y2="8.22"/>
	<line class="st4" x1="16.06" y1="8.42" x2="27.71" y2="15.72"/>
</g>
</svg>
