<?xml version="1.0" encoding="utf-8"?>
<!-- Generator: Adobe Illustrator 25.2.1, SVG Export Plug-In . SVG Version: 6.00 Build 0)  -->
<svg version="1.1" id="Capa_1" xmlns="http://www.w3.org/2000/svg" xmlns:xlink="http://www.w3.org/1999/xlink" x="0px" y="0px"
	 viewBox="0 0 28.4 28.4" style="enable-background:new 0 0 28.4 28.4;" xml:space="preserve">
<style type="text/css">
	.st0{fill:#EAEAE8;}
	.st1{fill:#D3D3D1;}
</style>
<path class="st0" d="M19,26.1c-4.9,0-9.8,0-14.7,0C3.7,23,3.4,19.2,3.4,14.9c0-3.8,0.4-7.3,0.9-10.1c4.9,0,9.8,0,14.7,0
	c-0.4,3.1-0.7,6.6-0.7,10.4C18.3,19.3,18.6,22.9,19,26.1z"/>
<rect x="5" y="11.2" class="st1" width="11.5" height="0.9"/>
<rect x="5" y="13.3" class="st1" width="11.5" height="0.9"/>
<rect x="5" y="15.1" class="st1" width="11.5" height="0.9"/>
<rect x="5" y="16.9" class="st1" width="11.5" height="0.9"/>
<rect x="5" y="18.8" class="st1" width="11.5" height="0.9"/>
<rect x="5.2" y="20.7" class="st1" width="11.5" height="0.9"/>
<rect x="5.2" y="9.3" class="st1" width="11.5" height="0.9"/>
<rect x="5.4" y="7.4" class="st1" width="11.5" height="0.9"/>
</svg>
