<?xml version="1.0" encoding="utf-8"?>
<!-- Generator: Adobe Illustrator 25.2.1, SVG Export Plug-In . SVG Version: 6.00 Build 0)  -->
<svg version="1.1" id="Capa_1" xmlns="http://www.w3.org/2000/svg" xmlns:xlink="http://www.w3.org/1999/xlink" x="0px" y="0px"
	 viewBox="0 0 28.35 42.52" style="enable-background:new 0 0 28.35 42.52;" xml:space="preserve">
<style type="text/css">
	.st0{fill:#EAEAD7;}
	.st1{fill:#E0DFC6;}
	.st2{fill:#F4F2F2;}
	.st3{fill:#8EACAD;}
	.st4{fill:#626261;}
	.st5{fill:#E2DCDC;}
</style>
<path class="st0" d="M20.31,10.49c-0.31,1.37-1.2,5.27-3.79,6.17c-1.04,0.36-2.18,0.25-2.18,0.25s-1.07-0.1-2.04-0.64
	c-2.74-1.48-3.14-6.18-3.19-6.79c-0.17-1.95-0.35-4,1.07-5.83c0.19-0.24,1.89-2.36,4.7-2.35c2.58,0.01,4.59,1.8,5.45,3.64
	C21.17,6.74,20.8,8.38,20.31,10.49z"/>
<path class="st1" d="M17.71,15.95c-0.28,0.2-1.84,1.26-3.89,0.85c-1.53-0.3-2.45-1.25-2.76-1.59c0.66,0.26,3.01,1.09,5.38,0.04
	c2.9-1.28,4.64-4.86,3.99-8.74c-0.15-0.74-0.3-1.48-0.45-2.22c0.35,0.73,0.64,1.57,0.8,2.53C21.51,11.41,18.46,15.09,17.71,15.95z"
	/>
<path class="st2" d="M14.34,28.22c-4.9-8.82-5.71-11.19-5.32-11.46c0.08-0.05,0.51-0.24,0.98-0.69c0.29-0.27,0.28-0.42,0.42-0.45
	c0.43-0.08,0.78,1.14,1.57,2.05c0.42,0.49,1.16,1.11,2.53,1.49c1.05-0.17,1.72-0.56,2.13-0.88c1.07-0.83,1.56-2.09,2.11-1.96
	c0.1,0.03,0.18,0.1,0.34,0.26c0,0,0.37,0.36,0.56,0.89C19.86,18.06,17.75,22.45,14.34,28.22z"/>
<path class="st3" d="M14.67,21.73c-0.42-0.04-0.76-0.48-1.44-1.37c-0.56-0.73-0.93-1.4-1.16-1.88c0.42,0.24,1.52,0.8,2.96,0.66
	c0.91-0.09,1.6-0.42,2-0.66C16.39,20.45,15.47,21.81,14.67,21.73z"/>
<path class="st3" d="M15.13,28.13c-0.03,0.09-0.43,1.36-0.78,1.33c-0.18-0.02-0.25-0.4-0.79-1.61c-0.07-0.16-0.13-0.28-0.16-0.35
	c0.04-1.69,0.08-3.39,0.13-5.08c0.13-0.61,0.7-1,1.23-0.91c0.42,0.07,0.77,0.44,0.85,0.91C15.86,25.15,15.48,27,15.13,28.13z"/>
<path class="st4" d="M27.95,41.11c-0.93,0.07-2.33,0.13-4.03,0.08c-1.83-0.05-3.53-0.23-7.12-0.78c-4.21-0.65-4.56-0.83-6-1.01
	c-2.43-0.31-5.98-0.38-10.55,0.85c0.25-1.54,0.54-3.9,0.55-6.81c0-1.19-0.04-1.25-0.08-3.63c-0.1-5.96,0.4-7.06,1-7.8
	c0.27-0.33,0.79-0.76,1.84-1.62c0.56-0.46,1.48-1.21,2.75-2.05c0.78-0.51,3.66-2.36,3.66-2.36c0,0,0,0,0,0
	c0.03,0.79,0.18,1.96,0.66,3.32c0.34,0.97,0.53,1.12,2.18,3.98c1.16,2.02,1.44,2.69,1.92,2.66c0.35-0.02,0.56-0.39,1.29-1.87
	c1.11-2.24,1.71-3.49,1.9-3.99c0.12-0.3,0.12-0.31,0.23-0.6c0.56-1.4,1.17-2.59,1.17-2.59c1.1,1.15,1.62,1.65,1.62,1.65c0,0,0,0,0,0
	c1.24,1.24,3.94,3.39,4.9,4.5c1.33,1.53,1.35,3.46,1.38,7.33c0.03,2.86-0.48,3.81-0.18,6.63C27.25,38.75,27.64,40.17,27.95,41.11z"
	/>
<path class="st5" d="M1.97,14.53"/>
<path class="st4" d="M-7.14,29.64"/>
</svg>
