<?xml version="1.0" encoding="utf-8"?>
<!-- Generator: Adobe Illustrator 25.2.1, SVG Export Plug-In . SVG Version: 6.00 Build 0)  -->
<svg version="1.1" id="Capa_1" xmlns="http://www.w3.org/2000/svg" xmlns:xlink="http://www.w3.org/1999/xlink" x="0px" y="0px"
	 viewBox="0 0 141.73 42.52" style="enable-background:new 0 0 141.73 42.52;" xml:space="preserve">
<style type="text/css">
	.st0{opacity:0.46;fill:#D77F43;}
	.st1{opacity:0.46;fill:#CFAB63;}
	.st2{opacity:0.46;fill:#64AACE;}
	.st3{opacity:0.46;fill:#396BB3;}
</style>
<path class="st0" d="M22.14,27.86c1.05,2.76,4.47,2.76,4.43,3.86c-0.08,2.23-14.49,7.51-21.14,0.57c-2.15-2.25-3.5-5.77-3.16-9.1
	c0.1-0.96,0.48-4.37,3.02-6.47c0.66-0.55,1.73-1.24,9.57-1.86c6.02-0.47,7.05-0.19,7.71,0.57c0.83,0.95,0.64,2.55,0.29,5.71
	C22.38,25.4,21.53,26.24,22.14,27.86z"/>
<path class="st1" d="M104.43,28.71c-1.34,3.87-8.1,4.64-12.71,4.14c-2.75-0.3-4.63-1.66-6.86-3.29c-1.48-1.08-8.21-5.98-7-10.29
	c0.66-2.33,3.4-3.37,5.36-4.3c4.28-2.03,8.68-0.72,9.21-0.55c3.08,0.97,5.04,2.58,6.29,3.71C100.36,19.63,105.85,24.61,104.43,28.71
	z"/>
<path class="st2" d="M139.5,23.59c0.5,2.8,0.02,6.69-2.5,8.98c-6.56,5.98-23.77-1.72-24.14-7.71c-0.14-2.23,1.96-5.7,4.52-6.22
	c0.72-0.15,1.17,0.1,1.76,0.07c3.54-0.15,6.75-3.92,10.14-4.29C133.31,13.99,138.56,18.34,139.5,23.59z"/>
<path class="st3" d="M61.14,25.71c-0.28,3.48,2.18,4.92,1.34,6.41c-0.82,1.45-3.37,0.47-12.48,0.3c-3.31-0.06-4.53,0.04-6.14-0.86
	c-3.11-1.73-4.07-5.14-4.29-6c-0.18-0.71-0.99-4.68,1.14-7.57c1.57-2.13,4.77-2.16,8.86-2.14c1.75,0.01,13.11-0.05,14,3.71
	C64.01,21.43,61.42,22.26,61.14,25.71z"/>
</svg>
