<?xml version="1.0" encoding="utf-8"?>
<!-- Generator: Adobe Illustrator 25.2.1, SVG Export Plug-In . SVG Version: 6.00 Build 0)  -->
<svg version="1.1" id="Capa_1" xmlns="http://www.w3.org/2000/svg" xmlns:xlink="http://www.w3.org/1999/xlink" x="0px" y="0px"
	 viewBox="0 0 28.3 28.3" style="enable-background:new 0 0 28.3 28.3;" xml:space="preserve">
<style type="text/css">
	.st0{fill:#66A7D3;}
	.st1{fill:#B7C6A8;}
</style>
<circle class="st0" cx="14.2" cy="14.3" r="13.4"/>
<path class="st1" d="M10.8,20.6c0-0.4,0-1-0.3-1.7s-0.6-1.2-0.9-1.5c-0.3-2.4,0.1-3.6,0.6-4.2c0.1-0.2,0.5-0.6,0.4-1
	c-0.1-0.5-0.6-0.5-1-0.9c-1-1,0-2.9-0.7-3.3C8.6,7.7,8.2,8.3,7.4,8.2C6.5,8,5.6,6.9,5.6,5.9c0-0.8,0.7-1.4,1.9-2.4
	c0.4-0.4,1.2-1,2.4-1.5c0.9-0.4,1.7-0.5,3.2-0.7c1.4-0.2,2-0.3,2.5-0.1c0.1,0,2.2,0.6,2.7,2.5c0.4,1.5-0.4,2.7-0.8,3.4s-1,1.7-2,1.7
	C14.4,8.9,13.8,7.7,13,8c-0.6,0.2-0.6,0.9-1.2,1c-0.8,0.2-1.3-0.6-1.7-0.4c-0.2,0.1-0.3,0.5,0,1.9c0.3,0.6,1,1.6,2.2,2.2
	c0.5,0.2,0.9,0.3,1.3,0.3c2.1,0.3,2.9-0.6,4,0c0.2,0.1,1,0.5,1,1.1c0.1,0.7-0.7,1.1-1.6,2.5c-0.3,0.5-0.5,1-0.7,1.3
	c-1.1,0.6-1.4,1.1-1.4,1.5c0,0.3,0.1,0.6-0.1,0.9c-0.2,0.3-0.5,0.2-0.9,0.5c-0.2,0.2-0.2,0.4-0.4,0.6c-0.2,0.6-0.4,0.7-0.5,1
	c0,0.1,0,0.1,0,0.4c0,0.4-0.1,0.4-0.1,0.7c0,0.4,0.1,0.8,0.2,1c0.1,0.2,0.1,0.3,0.1,0.5s-0.1,0.3-0.1,0.5c0,0.3,0.2,0.4,0.1,0.5
	c-0.1,0.1-0.2,0.1-0.3,0c0.1,0,0.1-0.4,0.1-0.5c0-0.2,0-0.3,0-0.4c-0.1-0.1-0.1-0.1-0.2-0.2c-0.1-0.1-0.1-0.2-0.2-0.4
	c0-0.3,0-0.5-0.1-0.6c0-0.3-0.1-0.5-0.3-1c-0.2-0.4-0.3-0.7-0.5-1.1C11.5,21.5,11.2,21.1,10.8,20.6z"/>
<path class="st1" d="M24.6,17.4c-0.4,0.3-0.6,0.3-0.7,0.1c-0.2-0.2-0.1-0.7-0.3-1.3c-0.2-0.6-0.5-0.5-0.8-1
	c-0.3-0.7,0.1-1.6,0.5-3.5c0.1-0.8,0.2-1.4,0.2-1.8c0.2-0.3,0.6-0.7,1-0.7c0.5,0,0.7,0.4,1,0.3c0.2,0,0.4-0.2,0.7-1.2
	c0.2,0.4,0.4,0.8,0.6,1.4c0.2,0.5,0.6,1.8,0.7,3.5c0.2,3.5-1,6.4-1.2,6.3c-0.1,0,0-0.3-0.2-0.5c-0.2-0.1-0.4,0-0.5-0.1
	c-0.2-0.2-0.1-0.5-0.2-0.9C25.4,17.9,25.2,17.6,24.6,17.4z"/>
<path class="st1" d="M12.7,26c-0.1,0-0.2,0.1-0.2,0.1c0-0.1,0-0.1,0-0.2c0,0,0.1,0,0.2-0.1l0.1-0.1c0.1,0,0.2,0.1,0.1,0.2
	C12.8,26,12.7,26,12.7,26z"/>
<path class="st1" d="M12.8,26.3c-0.1,0.1-0.2,0-0.2,0c-0.1,0-0.2-0.1-0.2-0.1v-0.1c0,0,0.1,0,0.1-0.1c0.1,0,0.1,0,0.1,0v0.1
	C12.9,26.3,12.9,26.3,12.8,26.3z"/>
<path class="st1" d="M13.3,26.6c-0.1-0.1-0.1-0.1-0.1-0.2v-0.1c0,0,0.1,0,0.1-0.1c0.1,0,0.1,0,0.1,0c0,0.1,0,0.1-0.1,0.2
	C13.4,26.5,13.3,26.5,13.3,26.6z"/>
<path class="st1" d="M13.1,26.6C13.1,26.6,13,26.6,13.1,26.6c-0.1,0-0.1-0.1-0.1-0.1l0,0h0.1C13.1,26.5,13.1,26.5,13.1,26.6
	L13.1,26.6z"/>
<path class="st1" d="M12.6,25.6c-0.1,0-0.2,0-0.3,0c-0.1-0.1-0.1-0.1-0.1-0.2v-0.1c0,0,0.1,0,0.1-0.1c0.1,0,0.1,0,0.1,0v0.1
	C12.6,25.4,12.6,25.5,12.6,25.6z"/>
<path class="st1" d="M13.1,26.3C13,26.4,13,26.4,13.1,26.3C13,26.4,13,26.3,13.1,26.3C13,26.3,13,26.3,13.1,26.3c0-0.1,0-0.1,0-0.1
	C13.1,26.2,13.1,26.3,13.1,26.3L13.1,26.3z"/>
</svg>
