<?xml version="1.0" encoding="utf-8"?>
<!-- Generator: Adobe Illustrator 25.2.1, SVG Export Plug-In . SVG Version: 6.00 Build 0)  -->
<svg version="1.1" id="Capa_1" xmlns="http://www.w3.org/2000/svg" xmlns:xlink="http://www.w3.org/1999/xlink" x="0px" y="0px"
	 viewBox="0 0 28.3 28.3" style="enable-background:new 0 0 28.3 28.3;" xml:space="preserve">
<style type="text/css">
	.st0{fill:#CAC7B8;}
	.st1{fill:#A78C6D;}
	.st2{fill:#BFAF9F;}
	.st3{fill:#C6B19E;}
	.st4{fill:#C4B8AD;}
	.st5{fill:#9DBFB3;}
	.st6{fill:#B7B2AE;}
	.st7{fill:#E7E2DF;}
	.st8{fill:#BCBAA2;}
	.st9{fill:#BCB9AD;}
	.st10{fill:#AA9F96;}
</style>
<rect x="2.4" y="14.6" class="st0" width="23.6" height="11.5"/>
<path class="st1" d="M25.3,27.1H2.1C2.1,27,2,26.8,2,26.5c0-0.2,0.1-0.4,0.1-0.5c7.7,0,15.5,0,23.2,0c0,0.1,0.1,0.3,0.1,0.6
	C25.4,26.8,25.4,27,25.3,27.1z"/>
<path class="st2" d="M25.3,27H2.1c0,0-0.1-0.1-0.1-0.3c0-0.1,0.1-0.2,0.1-0.3c7.7,0,15.5,0,23.2,0c0,0,0.1,0.2,0.1,0.3
	C25.4,26.8,25.4,26.9,25.3,27z"/>
<path class="st3" d="M24.6,14.8H2.4c0,0-0.1-0.1-0.1-0.3c0-0.1,0.1-0.2,0.1-0.3c7.4,0,14.8,0,22.2,0c0,0,0.1,0.2,0.1,0.3
	C24.7,14.6,24.7,14.7,24.6,14.8z"/>
<path class="st3" d="M14.2,26h-3.9v-6.7c0.3-0.1,1-0.4,1.9-0.4c1,0,1.8,0.3,2.1,0.4C14.2,21.5,14.2,23.8,14.2,26z"/>
<rect x="10.5" y="19.4" class="st4" width="3.5" height="6.6"/>
<path class="st5" d="M24.6,15.8c-7.5,0-15.1,0-22.6,0c0.3-2,0.9-4.2,1.6-6.6C4,8,4.5,6.9,4.9,5.9c7,0.1,14,0.1,21.1,0.2
	c0.5,1.2,0.9,2.1,1.1,2.7c0.5,1.4,0.4,1.3,0.6,1.6c0.3,0.8,0.4,0.9,0.3,1.2c0,0.3-0.2,0.5-1,1.5c-0.4,0.5-0.8,0.9-0.9,1
	C25.7,14.6,25.2,15.1,24.6,15.8z"/>
<path class="st6" d="M22.1,23.7h-6.1c0-0.7,0-1.5,0-2.2c0-0.7,0-1.3,0-2c2,0,4.1,0,6.1,0V23.7z"/>
<path class="st7" d="M21.8,23.6h-5.7c0-0.7,0-1.4,0-2.1c0-0.6,0-1.3,0-1.9c1.9,0,3.8,0,5.7,0V23.6z"/>
<path class="st8" d="M23.3,8c-0.3,0.1-0.7,0.3-1.4,0.3c-0.6,0-1-0.2-1.3-0.3c0-2,0-4.1,0-6.1h2.6V8z"/>
<path class="st0" d="M24.7,26c0.8-0.7,1.5-1.4,2.3-2.1c0.1-3.8,0.2-7.5,0.3-11.3c-0.8,0.9-1.7,1.9-2.5,2.8
	C24.8,19,24.8,22.5,24.7,26z"/>
<path class="st0" d="M36,16.6"/>
<path class="st2" d="M27.8,24.4L25.3,27c-0.1-0.1-0.2-0.2-0.3-0.3c-0.2-0.1-0.3-0.3-0.3-0.3c0.8-0.9,1.7-1.8,2.5-2.6
	c0.1,0.1,0.2,0.2,0.4,0.3C27.6,24.2,27.7,24.3,27.8,24.4z"/>
<rect x="24.5" y="15.7" class="st9" width="0.3" height="10.3"/>
<rect x="2.4" y="15.8" class="st9" width="0.3" height="10.2"/>
<circle class="st10" cx="13.2" cy="23" r="0.3"/>
<path class="st1" d="M27.3,23.9l-2.4,2.6c0,0-0.1-0.1-0.2-0.2c-0.1-0.1-0.1-0.1-0.2-0.2c0.8-0.9,1.6-1.7,2.4-2.6
	c0,0,0.1,0.1,0.2,0.2C27.2,23.8,27.2,23.9,27.3,23.9z"/>
</svg>
