<?xml version="1.0" encoding="utf-8"?>
<!-- Generator: Adobe Illustrator 25.2.1, SVG Export Plug-In . SVG Version: 6.00 Build 0)  -->
<svg version="1.1" id="Capa_1" xmlns="http://www.w3.org/2000/svg" xmlns:xlink="http://www.w3.org/1999/xlink" x="0px" y="0px"
	 viewBox="0 0 28.3 28.3" style="enable-background:new 0 0 28.3 28.3;" xml:space="preserve">
<style type="text/css">
	.st0{fill:#909091;stroke:#878787;stroke-width:0.15;stroke-miterlimit:10;}
	.st1{fill:#E0E4C6;}
	.st2{fill:#9C9B9B;}
</style>
<path class="st0" d="M7.1,24.2C7,24,6.7,23.8,6.4,23.5c-0.3-0.2-0.6-0.3-0.9-0.4c0,0,0-0.1,0-0.1c0-0.1,0.1-0.1,0.1-0.1
	c0.1-0.1,5.8-6.4,19.3-21.5c0.3,0.1,0.7,0.4,1.1,0.8c0.2,0.2,0.3,0.4,0.4,0.6c-6.3,7-12.6,14-18.9,21.1C7.4,23.9,7.2,24.1,7.1,24.2z
	"/>
<path class="st1" d="M4,26.1c0-0.1,0-0.2,0.1-0.4c0.1-0.1,0.1-0.2,0.1-0.2c0.1-0.2,0.4-0.8,1.2-2.6c0,0.1,0,0.2,0,0.3
	c0.1,0.1,0.4-0.3,0.6-0.2c0.1,0.1,0,0.2,0.1,0.4c0.2,0.2,0.7,0,0.8,0.2c0.1,0.1-0.1,0.3-0.1,0.4c0.1,0.1,0.4,0.1,0.4,0.2
	c0,0.1,0,0.2-0.3,0.3c-1.6,1-2.1,1.3-2.3,1.4c-0.1,0.1-0.1,0.1-0.2,0.1c-0.2,0.1-0.2,0.2-0.3,0.2C4.1,26.1,4.1,26.1,4,26.1z"/>
<path class="st0" d="M6.8,24.3"/>
<path class="st0" d="M3.7,26.6c0,0-0.1,0-0.1,0c0,0,0-0.1,0-0.1c0.2-0.2,0.3-0.3,0.5-0.5c0,0,0,0,0,0.1c0,0,0.1,0,0.1,0
	C4,26.3,3.9,26.5,3.7,26.6z"/>
<path class="st2" d="M7,23.8c0-0.1-0.1-0.2-0.3-0.3c-0.2-0.1-0.3-0.1-0.5-0.1c0,0,0-0.1,0.1-0.1c0,0,0.1-0.1,0.1-0.1
	c0.1-0.1,5.7-6.3,19-21.1c0.2,0,0.4,0.1,0.5,0.3c0.1,0.1,0.1,0.2,0.1,0.3C19.8,9.6,13.6,16.5,7.4,23.3C7.3,23.5,7.1,23.6,7,23.8z"/>
</svg>
