<?xml version="1.0" encoding="utf-8"?>
<!-- Generator: Adobe Illustrator 25.2.1, SVG Export Plug-In . SVG Version: 6.00 Build 0)  -->
<svg version="1.1" id="Capa_1" xmlns="http://www.w3.org/2000/svg" xmlns:xlink="http://www.w3.org/1999/xlink" x="0px" y="0px"
	 viewBox="0 0 198.4 198.4" style="enable-background:new 0 0 198.4 198.4;" xml:space="preserve">
<style type="text/css">
	.st0{fill:#A3BBC1;}
	.st1{fill:#EAEAD7;}
	.st2{fill:#E0DFC6;}
	.st3{fill:#F4F2F1;}
	.st4{fill:#8EACAD;}
	.st5{fill:#646362;}
	.st6{fill:#E2DCDC;}
	.st7{fill:#C0CCCE;}
	.st8{fill:#96B5BC;}
	.st9{fill:#97B3B8;}
	.st10{fill:#58595A;}
	.st11{fill:#5B5C5C;}
	.st12{fill:#A9BFC4;}
	.st13{opacity:0.33;fill:#FFFFFF;enable-background:new    ;}
</style>
<path id="sombra" class="st0" d="M68,297.7"/>
<g>
	<path class="st1" d="M125.7,45.7c-1.2,6.3-4.8,24.2-15.2,28.4c-4.2,1.7-8.7,1.1-8.7,1.1s-4.3-0.5-8.2-2.9
		c-11-6.8-12.6-28.4-12.8-31.2c-0.7-9-1.4-18.4,4.3-26.8c0.8-1.1,7.6-10.8,18.8-10.8c10.3,0,18.4,8.3,21.8,16.7
		C129.1,28.5,127.7,36,125.7,45.7z"/>
	<path class="st2" d="M115.5,71.8c-1.1,0.9-7.2,5.8-15.2,3.9c-6-1.4-9.6-5.7-10.8-7.3c1.8,0.9,6.7,3.2,11.6,3.9
		c0.7,0.1,2,0.3,3.7,0.3c0,0,2.8,0,5.5-0.7c3.4-0.9,9.1-6.2,12.9-15.2c4.6-11.1,3.7-21.5,3-28.3c-0.4-4.3-1.2-7.8-1.8-10.2
		c1.4,3.4,2.5,7.2,3.1,11.6C130.3,51,118.4,67.9,115.5,71.8z"/>
	<path class="st3" d="M101.2,119.7C78.2,82,74.1,70.6,76.4,68.8c0.5-0.4,2.6-1,5.5-3.1c2.9-2.1,2.9-2.2,3.3-2.2
		c1.5,0.3,0.8,4.6,3.8,9.5c0.3,0.5,1.1,1.7,2.2,2.9c3.1,3.2,7.3,4,9.9,4.2c2,0.2,5.7,0.7,9.6-1.2c0.5-0.3,1.8-0.9,3.2-2.1
		c2.3-2,3.8-4.5,4.6-6c1.5-2.6,1.6-3.6,2.5-3.8c1.8-0.4,4.1,3.4,4.4,3.9C129.8,78,111.9,104.7,101.2,119.7z"/>
	<path class="st4" d="M103,90.9c-2.4,0.2-4.5-2.6-6.6-5.4c-2.3-3.1-3.5-6.1-4.2-8c1,0.8,5.3,4.1,11.4,3.6c4.7-0.3,8-2.7,9.1-3.6
		c-1.1,2-2.6,4.7-4.6,7.7C104.9,90.2,103.9,90.8,103,90.9z"/>
	<path class="st4" d="M104.9,116.9c-0.1,0.4-1.7,5.5-3.2,5.4c-0.7-0.1-1-1.6-3.2-6.5c-0.3-0.7-0.5-1.1-0.7-1.4
		c0.2-6.9,0.3-13.8,0.5-20.6c0.5-2.5,2.8-4.1,5-3.7c1.7,0.3,3.1,1.8,3.5,3.7C107.8,104.8,106.3,112.3,104.9,116.9z"/>
	<path class="st5" d="M160.6,165.6c-3.7-0.2-9.1-0.5-15.7-0.6c-12.3-0.3-18.5-0.4-27,0c-8.6,0.5-12.8,1.2-20.7,0.4
		c-3.9-0.4-7.2-1-9.3-1.5l0,0c-1.7-0.3-2.9-0.4-2.9-0.4c-22.4-3.4-46.9,1.6-46.9,1.6c-7.9,1.6-11.9,3.1-13.8,0.9
		c-1.1-1.2-0.8-2.6,3.1-17.6c1.1-4.3,2-7.6,3.7-11.8c3.6-8.8,6.1-8,7.5-13.6c2.7-10.9-0.9-24.9,3.5-31.5c0.4-0.5,0.7-1,1.1-1.5
		c3.3-3.8,6.8-5.9,8.5-6.8c6.2-3.4,12-5.5,17.8-8.1c2.8-1.2,7-3.2,12.2-6c0.4,2.3,1.1,5.7,2.6,9.5c0.1,0.2,0.4,1.2,1,2.3
		c1.3,2.6,3.1,5,9.1,14.5c5.3,8.5,6.6,11.4,8.8,11.2c1.6-0.1,2.6-1.6,5.9-7.9c5.1-9.5,7.9-14.7,8.7-16.8c0.2-0.5,0.3-0.8,0.5-1.1
		c0.3-0.8,0.6-1.4,0.6-1.5c0.6-1.5,0.9-2.2,4.3-9c2.6,2.1,6.5,5.3,11.3,9c15.2,11.6,16.6,10.7,19.8,15c7.4,9.8,6.3,23.4,6.3,30.9
		c0.1,9.4-1.4,14.3-0.8,28C159.8,158.5,160.3,162.8,160.6,165.6z"/>
	<path class="st6" d="M62,57.9"/>
	<path class="st0" d="M169.4,196.2h-145c-0.1-0.5-0.3-1-0.3-1.7c-0.1-1.1,0.1-2,0.3-2.6c0,0,0-26.3,0-48.6c0-8.9,0-31.3,0-40.4l0,0
		l0.4-0.5c53.2-1,59.4-1,59.4-1c20.4-0.2,49.2-0.2,84.9,1c0.1,0.1,0.3,0.3,0.3,0.4v0.1c-0.9,9,0,39.8,0,39.8
		c0.6,18.6-0.1,45.8,0,49.3c0,0.1,0,0.1,0,0.1c0,0.9,0.2,1.5,0.2,1.7C169.7,194.3,169.7,195,169.4,196.2z"/>
	<rect x="24.4" y="189.8" class="st7" width="145" height="2.2"/>
	<rect x="26.6" y="104.2" class="st8" width="140.7" height="84"/>
	<rect x="60.5" y="120.8" class="st9" width="72.8" height="43.4"/>
	<path class="st10" d="M127.3,42.3c-0.3-13.8-3.5-17.8-6.3-18.9c-3.5-1.4-5.7,2-13.3,3.1c-10.6,1.5-15.2-3.8-20.4-1
		C84.5,27,81.5,31,81.2,42c-1.1-2.5-2.6-6.9-2.5-12.5c0-2.6,0.2-12,7.4-19.3c5.3-5.4,11.7-6.5,16.4-7.3c6.2-1.1,18.7-1.7,21.3,4
		c0.6,1.3,0.6,2.7,0.4,3.7c0.6,0.1,1.4,0.3,2.3,0.7c0,0,0.7,0.4,1.4,0.9c1.2,1,5,7.7,3.1,18.7C130.5,33.6,129.6,37.7,127.3,42.3z"/>
	<path class="st11" d="M120,13.8c-2.9,5.8-8.7,9.7-15.1,9.9c-7.1,0.2-13.8-4.1-16.7-10.8c4.7-2.4,9.4-4.9,14.1-7.3
		c4.2,0,8.3,0,12.5,0c2,0.9,4.1,1.9,6.1,2.8C120.6,10.2,120.3,12,120,13.8z"/>
	<path class="st11" d="M131,22.6c0.6,5.3-1.9,10.8-3.5,10.7c-1.3-0.1-0.8-4.1-3.8-8.6c-1.9-2.9-4.3-4.7-6.1-5.8
		c0.8-4.7,3.5-8,6.4-8.3c0.6-0.1,1.6,0,2.8,0.6c0.9,1.1,1.8,2.1,2.7,3.2c0.3,1.8,0.5,3.6,0.8,5.4C130.6,20.5,130.9,21.5,131,22.6z"
		/>
	<rect x="76.7" y="133.1" class="st12" width="40.5" height="13.5"/>
	<path class="st5" d="M240.6,76.8"/>
	<path class="st13" d="M169.4,101.7h-145c4.5-14.4,14.8-39.1,38.3-57.8C73,35.7,86.4,25,104.2,26.3c16.5,1.3,27.5,12.3,36.4,21.1
		C159,66,166.3,87.9,169.4,101.7z"/>
</g>
</svg>
