<?xml version="1.0" encoding="utf-8"?>
<!-- Generator: Adobe Illustrator 25.2.1, SVG Export Plug-In . SVG Version: 6.00 Build 0)  -->
<svg version="1.1" id="Capa_1" xmlns="http://www.w3.org/2000/svg" xmlns:xlink="http://www.w3.org/1999/xlink" x="0px" y="0px"
	 viewBox="0 0 28.35 28.35" style="enable-background:new 0 0 28.35 28.35;" xml:space="preserve">
<style type="text/css">
	.st0{opacity:0.46;fill:#65ABCE;enable-background:new    ;}
</style>
<path class="st0" d="M24.46,17.92c-0.14,2.57-2.36,4.19-3.64,5.14c-2.27,1.68-4.66,2.06-6,2.14c-0.73,0.04-4.19,0.18-7.39-2.14
	c-1.02-0.74-2.32-1.68-3-3.43c-1.16-2.97-0.1-6.8,1.82-7.61c0.48-0.2,0.56-0.24,3.38-0.3c0.57-0.01,1.25-0.07,2.08-0.23
	c3.45-0.66,3.91-1.93,5.79-1.5c1.84,0.42,3.21,1.47,4.29,2.57C22.9,13.7,24.6,15.44,24.46,17.92z"/>
</svg>
