<?xml version="1.0" encoding="utf-8"?>
<!-- Generator: Adobe Illustrator 25.2.1, SVG Export Plug-In . SVG Version: 6.00 Build 0)  -->
<svg version="1.1" id="Capa_1" xmlns="http://www.w3.org/2000/svg" xmlns:xlink="http://www.w3.org/1999/xlink" x="0px" y="0px"
	 viewBox="0 0 255.1 141.7" style="enable-background:new 0 0 255.1 141.7;" xml:space="preserve">
<style type="text/css">
	.st0{fill:#E4EBC5;}
	.st1{fill:#7BB69F;}
	.st2{fill:#DEF0F5;}
	.st3{fill:#E4F3F9;}
	.st4{fill:#C6E0DE;}
	.st5{fill:#EFEDED;}
	.st6{fill:#FFFFFF;}
	.st7{fill:#DBDBDB;}
	.st8{fill:#BDD6D3;}
	.st9{fill:#A2D7E3;}
	.st10{fill:#9FD4DB;}
	.st11{fill:#65C1C0;}
	.st12{fill:#61B5B3;}
	.st13{fill:#FDDEA9;}
	.st14{fill:#F4D6A7;}
	.st15{fill:#A9C5E9;}
	.st16{fill:#A1BEDD;}
	.st17{fill:#F8CDE2;}
	.st18{fill:#EDC6DC;}
	.st19{fill:#70C1B3;}
	.st20{fill:#71B591;}
	.st21{fill:#70B28E;}
	.st22{fill:#EBEDED;}
	.st23{fill:#F0EFEE;}
	.st24{fill:#E4E3E3;}
	.st25{fill:#82AF96;}
	.st26{fill:#89C6C1;}
	.st27{fill:#D9E8ED;}
	.st28{fill:#E9E8E8;}
	.st29{fill:#87BDB5;}
	.st30{fill:#F9F7F6;}
	.st31{fill:#EAEAEA;}
	.st32{fill:#E0E0E0;}
	.st33{fill:#EEEDED;}
	.st34{fill:#D9DACD;}
	.st35{fill:#FFF9F4;}
	.st36{fill:#B7D9B4;}
	.st37{fill:#ADDDF8;}
	.st38{fill:#DDD99F;}
	.st39{fill:#8DA9D9;}
	.st40{fill:#F6BEAB;}
	.st41{fill:#C7E2C5;}
	.st42{fill:#C1D8BE;}
	.st43{fill:#E0AFA1;}
	.st44{fill:#B4D1B0;}
	.st45{fill:#87A2CC;}
	.st46{fill:#D1CB9A;}
	.st47{fill:#A4D3E8;}
	.st48{fill:#DDDDDD;}
	.st49{fill:#DDDDD7;}
</style>
<path class="st0" d="M26.3,146.4"/>
<path class="st1" d="M244.9,116.6c-43.6,0-87.2,0-130.7,0c-10.2,0-20.4,0-30.6,0c0-34.9,0-69.7,0-104.6l0.2-0.3
	c0.1,0.1,160.1,0,160.1,0l1,1.2C244.9,13,244.9,111.9,244.9,116.6z"/>
<rect x="84.8" y="12.8" class="st2" width="158.8" height="97.9"/>
<path class="st3" d="M85.8,12.5"/>
<rect x="193.2" y="30.3" class="st4" width="19.1" height="21.1"/>
<rect x="84.8" y="12.8" class="st5" width="158.8" height="6.6"/>
<path class="st6" d="M159.9,114.9h-2.9c0-0.4-0.1-1-0.1-1.6c0-0.7,0-1.3,0.1-1.7c1,0,2,0,2.9,0c0,0.4,0.1,1.1,0.1,1.8
	C159.9,114,159.9,114.5,159.9,114.9z"/>
<rect x="106.2" y="15.3" class="st7" width="101.2" height="2.8"/>
<rect x="93.5" y="15.3" class="st7" width="10" height="2.8"/>
<rect x="193.2" y="43.1" class="st8" width="19.1" height="8.1"/>
<rect x="193.2" y="57.8" class="st9" width="19.1" height="21.1"/>
<rect x="193.2" y="70.7" class="st10" width="19.1" height="8.1"/>
<rect x="155.6" y="30.3" class="st11" width="19.1" height="21.1"/>
<rect x="155.6" y="43.1" class="st12" width="19.1" height="8.1"/>
<rect x="155.6" y="57.8" class="st13" width="19.1" height="21.1"/>
<rect x="155.6" y="70.7" class="st14" width="19.1" height="8.1"/>
<rect x="120" y="57.8" class="st15" width="19.1" height="21.1"/>
<rect x="120" y="70.7" class="st16" width="19.1" height="8.1"/>
<rect x="120" y="30.3" class="st17" width="19.1" height="21.1"/>
<rect x="120" y="43.1" class="st18" width="19.1" height="8.1"/>
<rect x="160.8" y="116.6" class="st19" width="5.6" height="18.1"/>
<path class="st19" d="M186.4,136.3h-45.7c-0.2-0.1-0.8-0.4-0.9-0.9c-0.1-0.7,0.8-1.2,0.9-1.2c15.2,0,30.5,0,45.7,0
	c0.1,0,1.2,0.5,1.1,1.2C187.3,135.9,186.5,136.2,186.4,136.3z"/>
<path class="st20" d="M185.9,136.3h-45c-0.2,0-0.8-0.2-0.9-0.5c-0.1-0.3,0.8-0.6,0.9-0.6c15,0,30,0,45,0c0.1,0,1.2,0.2,1.1,0.6
	C186.9,136.1,186.1,136.3,185.9,136.3z"/>
<rect x="160.8" y="116.6" class="st21" width="0.3" height="17.5"/>
<path class="st22" d="M159.9,114.9c-1,0-2,0-2.9,0c0-0.1-0.1-0.3-0.1-0.6c0-0.2,0-0.3,0-0.4c1,0,2.1,0,3.1,0c0,0.1,0,0.3,0,0.4
	C159.9,114.6,159.9,114.8,159.9,114.9z"/>
<path class="st6" d="M166.5,114.9h-5.1c-0.1-0.4-0.1-1-0.1-1.6c0-0.7,0.1-1.3,0.1-1.7c1.7,0,3.4,0,5.1,0c0.1,0.4,0.1,1.1,0.1,1.8
	C166.6,114,166.6,114.5,166.5,114.9z"/>
<path class="st22" d="M166.5,114.9c-1.7,0-3.4,0-5.1,0c-0.1-0.1-0.1-0.3-0.1-0.6c0-0.2,0-0.3,0-0.4c1.8,0,3.6,0,5.3,0
	c0,0.1,0,0.3,0,0.4C166.6,114.6,166.5,114.8,166.5,114.9z"/>
<path class="st6" d="M171.1,114.9h-3c0-0.4-0.1-1-0.1-1.6c0-0.7,0-1.3,0.1-1.7c1,0,2,0,3,0c0,0.4,0.1,1.1,0.1,1.8
	C171.1,114,171.1,114.5,171.1,114.9z"/>
<path class="st22" d="M171.1,114.9c-1,0-2,0-3,0c0-0.1-0.1-0.3-0.1-0.6c0-0.2,0-0.3,0-0.4c1.1,0,2.1,0,3.2,0c0,0.1,0,0.3,0,0.4
	C171.1,114.6,171.1,114.8,171.1,114.9z"/>
<rect x="84.8" y="105.5" class="st23" width="158.8" height="5.2"/>
<rect x="86.3" y="106.9" class="st7" width="11.1" height="3.2"/>
<rect x="237.6" y="107" class="st7" width="3.2" height="3.2"/>
<rect x="229.3" y="107" class="st7" width="6.9" height="3.2"/>
<rect x="84.8" y="105.5" class="st24" width="158.8" height="0.6"/>
<rect x="83.5" y="115.4" class="st25" width="161.3" height="0.6"/>
<path class="st26" d="M62.2,117.9H7.7c0-0.9,0-97.8,0-97.8s0-0.3,0.2-0.5c0.2-0.2,0.5-0.3,0.5-0.3c35.4,0,53,0,53,0
	c0.4,0.2,0.7,0.5,0.7,0.9C62.2,20.2,62.2,20.3,62.2,117.9z"/>
<path class="st27" d="M9.2,27.7c0,0,33.3,0,44.5,0c1,0,6.8,0,6.8,0l0,0c0,0,0.4,0,0.7,0.3c0.3,0.3,0.3,0.7,0.3,0.7l0,0
	c0,0,0,83.4,0,88.4c-17.7,0-35.4,0-53,0c0-60.3,0-88.7,0-88.7l0,0c0,0,0-0.3,0.2-0.4C8.9,27.8,9.2,27.7,9.2,27.7L9.2,27.7z"/>
<circle class="st28" cx="34.2" cy="23.7" r="1.8"/>
<circle class="st29" cx="28.2" cy="23.4" r="3.5"/>
<rect x="9.4" y="28" class="st6" width="51.4" height="88.7"/>
<circle class="st30" cx="28.2" cy="23.4" r="3.3"/>
<circle class="st30" cx="34.2" cy="23.7" r="1.5"/>
<circle class="st31" cx="28.2" cy="23.4" r="3.1"/>
<circle class="st31" cx="34.2" cy="23.7" r="1.4"/>
<circle class="st30" cx="28.2" cy="23.4" r="3"/>
<circle class="st30" cx="34.2" cy="23.7" r="1.4"/>
<circle class="st32" cx="28.2" cy="23.4" r="2.7"/>
<circle class="st31" cx="28.2" cy="23.4" r="2.6"/>
<circle class="st32" cx="28.2" cy="23.4" r="2.2"/>
<circle class="st33" cx="28.2" cy="23.4" r="2.1"/>
<path class="st34" d="M52.9,25c-2.4-0.1-4.8-0.2-7.4-0.2c-2.5,0-4.9,0-7.2,0.1c0-0.4-0.1-0.8-0.1-1.2c0-0.6,0-1.1,0.1-1.5
	c2.4,0.1,4.8,0.2,7.3,0.2c2.5,0,5,0,7.3-0.1c0,0.4,0.1,0.9,0.1,1.4C53,24.2,53,24.6,52.9,25z"/>
<path class="st0" d="M12.4,124.8"/>
<circle class="st35" cx="28.2" cy="23.4" r="1.1"/>
<path class="st3" d="M9.5,27.5"/>
<rect x="12.8" y="39.7" class="st13" width="11.9" height="13.1"/>
<rect x="12.8" y="55.9" class="st36" width="11.9" height="13.1"/>
<rect x="12.8" y="72" class="st15" width="11.9" height="13.1"/>
<rect x="12.8" y="88.2" class="st17" width="11.9" height="13.1"/>
<rect x="28.8" y="39.7" class="st37" width="11.9" height="13.1"/>
<rect x="45.2" y="39.7" class="st38" width="11.9" height="13.1"/>
<rect x="28.8" y="55.9" class="st11" width="11.9" height="13.1"/>
<rect x="45.2" y="55.9" class="st39" width="11.9" height="13.1"/>
<rect x="45.2" y="72" class="st40" width="11.9" height="13.1"/>
<rect x="45.2" y="88.6" class="st41" width="11.9" height="13.1"/>
<rect x="28.8" y="72" class="st9" width="11.9" height="13.1"/>
<rect x="28.8" y="88.2" class="st4" width="11.9" height="13.1"/>
<rect x="9.4" y="28" class="st5" width="51.4" height="3.8"/>
<rect x="9.4" y="106.4" class="st31" width="51.4" height="10.3"/>
<rect x="12.3" y="109.8" class="st7" width="12.9" height="4.3"/>
<rect x="30" y="109.8" class="st7" width="10.1" height="4.3"/>
<rect x="44.7" y="109.8" class="st7" width="12.9" height="4.3"/>
<rect x="55.6" y="29.5" class="st7" width="3.8" height="1.6"/>
<rect x="50.4" y="29.5" class="st7" width="3.3" height="1.6"/>
<rect x="18.8" y="29.5" class="st7" width="6.6" height="1.6"/>
<rect x="28.8" y="97" class="st8" width="11.9" height="4.3"/>
<rect x="45.2" y="97" class="st42" width="11.9" height="4.3"/>
<rect x="12.8" y="97" class="st18" width="11.9" height="4.3"/>
<rect x="12.8" y="80.9" class="st16" width="11.9" height="4.3"/>
<rect x="28.8" y="80.9" class="st10" width="11.9" height="4.3"/>
<rect x="45.2" y="80.9" class="st43" width="11.9" height="4.3"/>
<rect x="12.8" y="64.7" class="st44" width="11.9" height="4.3"/>
<rect x="28.8" y="64.7" class="st12" width="11.9" height="4.3"/>
<rect x="45.2" y="64.7" class="st45" width="11.9" height="4.3"/>
<rect x="45.2" y="48.5" class="st46" width="11.9" height="4.3"/>
<rect x="28.8" y="48.5" class="st47" width="11.9" height="4.3"/>
<rect x="12.8" y="48.5" class="st14" width="11.9" height="4.3"/>
<rect x="9.4" y="106.4" class="st48" width="51.4" height="0.5"/>
<path class="st49" d="M52.9,25.1c-2.3-0.1-4.8-0.2-7.3-0.2c-2.6,0-5,0-7.3,0.1c0-0.4-0.1-0.9-0.1-1.4c4.9,0,9.9,0,14.8,0
	C53,24.2,53,24.7,52.9,25.1z"/>
<path class="st26" d="M62.2,19.3"/>
<rect x="9.4" y="31.5" class="st24" width="51.4" height="0.3"/>
<path class="st1" d="M110.7-38.4"/>
</svg>
