<?xml version="1.0" encoding="utf-8"?>
<!-- Generator: Adobe Illustrator 25.2.1, SVG Export Plug-In . SVG Version: 6.00 Build 0)  -->
<svg version="1.1" id="Capa_1" xmlns="http://www.w3.org/2000/svg" xmlns:xlink="http://www.w3.org/1999/xlink" x="0px" y="0px"
	 viewBox="0 0 170.08 113.39" style="enable-background:new 0 0 170.08 113.39;" xml:space="preserve">
<style type="text/css">
	.st0{fill:#E3EAC5;}
	.st1{fill:#6FC0B2;}
	.st2{fill:#DDF0F5;}
	.st3{fill:#E3F3F9;}
	.st4{fill:#C6E0DE;}
	.st5{fill:#EFEDED;}
	.st6{fill:#FFFFFF;}
	.st7{fill:#DBDBDB;}
	.st8{fill:#BDD6D3;}
	.st9{fill:#A1D7E3;}
	.st10{fill:#9FD3DB;}
	.st11{fill:#64C0BF;}
	.st12{fill:#61B5B3;}
	.st13{fill:#FCDEA9;}
	.st14{fill:#F3D6A7;}
	.st15{fill:#A8C5E9;}
	.st16{fill:#A1BEDD;}
	.st17{fill:#F8CCE1;}
	.st18{fill:#EEC6DC;}
	.st19{fill:#71B590;}
	.st20{fill:#70B28E;}
	.st21{fill:#EBEDED;}
	.st22{fill:#EFEFED;}
	.st23{fill:#E5E4E4;}
	.st24{fill:#8AC6C1;}
	.st25{fill:#D9E8ED;}
	.st26{fill:#E8E8E8;}
	.st27{fill:#85BCB5;}
	.st28{fill:#F8F7F6;}
	.st29{fill:#EAEAEA;}
	.st30{fill:#E0E0E0;}
	.st31{fill:#EDEDED;}
	.st32{fill:#D8D9CC;}
	.st33{fill:#FFF9F4;}
	.st34{fill:#B7DAB4;}
	.st35{fill:#ABDDF9;}
	.st36{fill:#DDD99E;}
	.st37{fill:#8DA9D9;}
	.st38{fill:#F7BEAA;}
	.st39{fill:#C6E1C4;}
	.st40{fill:#C0D8BE;}
	.st41{fill:#E0AFA0;}
	.st42{fill:#B3D1B0;}
	.st43{fill:#87A2CC;}
	.st44{fill:#D1CB99;}
	.st45{fill:#A3D3E8;}
	.st46{fill:#DDDDDD;}
	.st47{fill:#DDDDD7;}
</style>
<path class="st0" d="M19.94,104.87"/>
<path class="st1" d="M165.89,84.95H58.15c0-34.65,0-69.85,0-69.85c0,0,0.16-0.18,0.16-0.18c0,0,0,0,0,0c0.1,0.05,106.93,0,106.93,0
	c0,0,0.65,0.83,0.65,0.83C165.89,15.75,165.89,81.84,165.89,84.95z"/>
<rect x="58.99" y="15.61" transform="matrix(-1 -1.224647e-16 1.224647e-16 -1 224.0443 96.6371)" class="st2" width="106.07" height="65.41"/>
<path class="st3" d="M59.67,15.41"/>
<rect x="131.39" y="27.3" class="st4" width="12.76" height="14.06"/>
<rect x="58.99" y="15.61" class="st5" width="106.04" height="4.42"/>
<path class="st6" d="M109.09,83.83h-3.4c-0.05-0.2-0.08-0.45-0.09-0.75c0-0.33,0.04-0.61,0.09-0.82c1.13,0,2.27,0,3.4,0
	c0.05,0.21,0.1,0.5,0.1,0.84C109.18,83.39,109.13,83.64,109.09,83.83z"/>
<rect x="73.28" y="17.31" class="st7" width="67.57" height="1.88"/>
<rect x="64.78" y="17.31" class="st7" width="6.66" height="1.88"/>
<rect x="131.39" y="35.88" class="st8" width="12.76" height="5.44"/>
<rect x="131.39" y="45.67" class="st9" width="12.76" height="14.06"/>
<rect x="131.39" y="54.29" class="st10" width="12.76" height="5.44"/>
<rect x="106.24" y="27.3" class="st11" width="12.76" height="14.06"/>
<rect x="106.24" y="35.88" class="st12" width="12.76" height="5.44"/>
<rect x="106.24" y="45.67" class="st13" width="12.76" height="14.06"/>
<rect x="106.24" y="54.29" class="st14" width="12.76" height="5.44"/>
<rect x="82.5" y="45.67" class="st15" width="12.76" height="14.06"/>
<rect x="82.5" y="54.29" class="st16" width="12.76" height="5.44"/>
<rect x="82.5" y="27.3" class="st17" width="12.76" height="14.06"/>
<rect x="82.5" y="35.88" class="st18" width="12.76" height="5.44"/>
<rect x="109.74" y="84.95" class="st1" width="3.71" height="12.07"/>
<path class="st1" d="M126.81,98.1H96.28c-0.12-0.06-0.56-0.27-0.63-0.63c-0.09-0.47,0.55-0.78,0.63-0.82c10.18,0,20.35,0,30.53,0
	c0.04,0.02,0.83,0.33,0.73,0.82C127.46,97.86,126.9,98.07,126.81,98.1z"/>
<path class="st19" d="M126.54,98.1H96.47c-0.12-0.03-0.55-0.14-0.62-0.31c-0.09-0.23,0.54-0.39,0.62-0.41c10.02,0,20.05,0,30.07,0
	c0.04,0.01,0.82,0.16,0.72,0.41C127.18,97.98,126.63,98.09,126.54,98.1z"/>
<rect x="109.74" y="84.95" class="st20" width="0.23" height="11.71"/>
<path class="st21" d="M109.09,83.83c-1.13,0-2.27,0-3.4,0c-0.04-0.09-0.07-0.22-0.09-0.37c-0.01-0.11-0.01-0.2,0-0.28
	c1.19,0,2.38,0.01,3.57,0.01c0,0.08,0,0.18-0.02,0.28C109.14,83.61,109.12,83.73,109.09,83.83z"/>
<path class="st6" d="M113.55,83.83h-3.4c-0.05-0.2-0.08-0.45-0.09-0.75c0-0.33,0.04-0.61,0.09-0.82c1.13,0,2.27,0,3.4,0
	c0.05,0.21,0.1,0.5,0.1,0.84C113.64,83.39,113.59,83.64,113.55,83.83z"/>
<path class="st21" d="M113.55,83.83c-1.13,0-2.27,0-3.4,0c-0.04-0.09-0.07-0.22-0.09-0.37c-0.01-0.11-0.01-0.2,0-0.28
	c1.19,0,2.38,0.01,3.57,0.01c0,0.08,0,0.18-0.02,0.28C113.61,83.61,113.58,83.73,113.55,83.83z"/>
<path class="st6" d="M118,83.83h-3.4c-0.05-0.2-0.08-0.45-0.09-0.75c0-0.33,0.04-0.61,0.09-0.82c1.13,0,2.27,0,3.4,0
	c0.05,0.21,0.1,0.5,0.1,0.84C118.09,83.39,118.05,83.64,118,83.83z"/>
<path class="st21" d="M118.01,83.83c-1.13,0-2.27,0-3.4,0c-0.04-0.09-0.07-0.22-0.09-0.37c-0.01-0.11-0.01-0.2,0-0.28
	c1.19,0,2.38,0.01,3.57,0.01c0,0.08,0,0.18-0.02,0.28C118.07,83.61,118.04,83.73,118.01,83.83z"/>
<rect x="58.99" y="77.53" class="st22" width="106.07" height="3.5"/>
<rect x="60.01" y="78.51" class="st7" width="7.41" height="2.16"/>
<rect x="161.05" y="78.57" class="st7" width="2.16" height="2.16"/>
<rect x="155.49" y="78.57" class="st7" width="4.59" height="2.16"/>
<rect x="58.99" y="77.53" class="st23" width="106.07" height="0.43"/>
<rect x="58.15" y="84.18" class="st19" width="107.75" height="0.43"/>
<path class="st24" d="M43.87,85.8H7.52c0-0.59,0-65.29,0-65.29c0,0,0.02-0.2,0.12-0.33C7.76,20.05,7.98,20,7.98,20
	c23.61,0,35.41,0,35.41,0c0.25,0.15,0.46,0.34,0.48,0.58C43.87,20.61,43.87,20.63,43.87,85.8z"/>
<path class="st25" d="M8.48,25.59c0,0,22.22,0,29.74,0c0.69,0,4.56,0,4.56,0l0,0c0,0,0.3,0.03,0.48,0.2
	c0.18,0.17,0.23,0.47,0.23,0.47l0,0c0,0,0,55.69,0,59.05c-11.81,0-23.62,0-35.43,0c0-40.28,0-59.26,0-59.26c0,0,0,0,0,0
	c0,0,0.03-0.17,0.13-0.28C8.3,25.64,8.48,25.59,8.48,25.59L8.48,25.59z"/>
<circle class="st26" cx="25.18" cy="22.9" r="1.2"/>
<circle class="st27" cx="21.18" cy="22.72" r="2.34"/>
<rect x="8.62" y="25.8" transform="matrix(-1 -1.224647e-16 1.224647e-16 -1 51.5829 110.8562)" class="st6" width="34.34" height="59.25"/>
<circle class="st28" cx="21.18" cy="22.72" r="2.18"/>
<circle class="st28" cx="25.18" cy="22.9" r="1.03"/>
<circle class="st29" cx="21.18" cy="22.72" r="2.05"/>
<circle class="st29" cx="25.18" cy="22.9" r="0.93"/>
<circle class="st28" cx="21.18" cy="22.72" r="1.98"/>
<circle class="st28" cx="25.18" cy="22.9" r="0.91"/>
<circle class="st30" cx="21.18" cy="22.72" r="1.78"/>
<circle class="st29" cx="21.18" cy="22.72" r="1.71"/>
<circle class="st30" cx="21.18" cy="22.72" r="1.44"/>
<circle class="st31" cx="21.18" cy="22.72" r="1.38"/>
<path class="st32" d="M37.7,23.8c-1.58-0.08-3.23-0.13-4.95-0.14c-1.67-0.01-3.29,0.02-4.83,0.08c-0.03-0.25-0.06-0.52-0.06-0.83
	c0-0.37,0.03-0.71,0.07-0.99c1.57,0.08,3.2,0.13,4.9,0.14c1.69,0.01,3.32-0.02,4.88-0.08c0.03,0.28,0.05,0.59,0.05,0.94
	C37.76,23.24,37.73,23.54,37.7,23.8z"/>
<path class="st0" d="M10.64,90.43"/>
<circle class="st33" cx="21.18" cy="22.72" r="0.75"/>
<path class="st3" d="M8.67,25.48"/>
<rect x="10.91" y="33.61" class="st13" width="7.95" height="8.75"/>
<rect x="10.91" y="44.4" class="st34" width="7.95" height="8.75"/>
<rect x="10.91" y="55.19" class="st15" width="7.95" height="8.75"/>
<rect x="10.91" y="65.98" class="st17" width="7.95" height="8.75"/>
<rect x="21.6" y="33.61" class="st35" width="7.95" height="8.75"/>
<rect x="32.57" y="33.61" class="st36" width="7.95" height="8.75"/>
<rect x="21.6" y="44.4" class="st11" width="7.95" height="8.75"/>
<rect x="32.57" y="44.4" class="st37" width="7.95" height="8.75"/>
<rect x="32.57" y="55.19" class="st38" width="7.95" height="8.75"/>
<rect x="32.57" y="66.26" class="st39" width="7.95" height="8.75"/>
<rect x="21.6" y="55.19" class="st9" width="7.95" height="8.75"/>
<rect x="21.6" y="65.98" class="st4" width="7.95" height="8.75"/>
<rect x="8.62" y="25.8" class="st5" width="34.34" height="2.56"/>
<rect x="8.62" y="78.18" class="st29" width="34.34" height="6.88"/>
<rect x="10.57" y="80.44" class="st7" width="8.63" height="2.85"/>
<rect x="22.37" y="80.44" class="st7" width="6.75" height="2.85"/>
<rect x="32.23" y="80.44" class="st7" width="8.63" height="2.85"/>
<rect x="39.5" y="26.81" class="st7" width="2.56" height="1.05"/>
<rect x="36.03" y="26.81" class="st7" width="2.22" height="1.05"/>
<rect x="14.89" y="26.81" class="st7" width="4.44" height="1.05"/>
<rect x="21.6" y="71.88" class="st8" width="7.95" height="2.85"/>
<rect x="32.57" y="71.88" class="st40" width="7.95" height="2.85"/>
<rect x="10.91" y="71.88" class="st18" width="7.95" height="2.85"/>
<rect x="10.91" y="61.09" class="st16" width="7.95" height="2.85"/>
<rect x="21.59" y="61.09" class="st10" width="7.95" height="2.85"/>
<rect x="32.57" y="61.09" class="st41" width="7.95" height="2.85"/>
<rect x="10.91" y="50.3" class="st42" width="7.95" height="2.85"/>
<rect x="21.59" y="50.3" class="st12" width="7.95" height="2.85"/>
<rect x="32.57" y="50.3" class="st43" width="7.95" height="2.85"/>
<rect x="32.57" y="39.51" class="st44" width="7.95" height="2.85"/>
<rect x="21.6" y="39.51" class="st45" width="7.95" height="2.85"/>
<rect x="10.91" y="39.51" class="st14" width="7.95" height="2.85"/>
<rect x="8.62" y="78.18" class="st46" width="34.34" height="0.35"/>
<path class="st47" d="M37.7,23.88c-1.55-0.09-3.18-0.15-4.88-0.16c-1.71-0.01-3.34,0.03-4.9,0.1c-0.02-0.3-0.04-0.61-0.06-0.91
	c3.3,0,6.6,0.01,9.9,0.01C37.74,23.24,37.72,23.56,37.7,23.88z"/>
<path class="st24" d="M43.87,20"/>
<rect x="8.62" y="28.13" class="st23" width="34.34" height="0.23"/>
</svg>
