<?xml version="1.0" encoding="utf-8"?>
<!-- Generator: Adobe Illustrator 25.2.1, SVG Export Plug-In . SVG Version: 6.00 Build 0)  -->
<svg version="1.1" id="Capa_1" xmlns="http://www.w3.org/2000/svg" xmlns:xlink="http://www.w3.org/1999/xlink" x="0px" y="0px"
	 viewBox="0 0 113.4 14.2" style="enable-background:new 0 0 113.4 14.2;" xml:space="preserve">
<style type="text/css">
	.st0{fill:#4F8BA3;}
	.st1{fill:#114563;}
</style>
<path id="svg_x5F_inco01" class="st0" d="M113.4,13.8H0c0-1.1,0-2.2,0-3.3C6.8,9.3,17.1,7.9,29.8,8c10,0.1,17.2,1.1,19.8,1.4
	c12.1,1.5,31.5,1,63.8-7.6C113.4,5.8,113.4,9.8,113.4,13.8z"/>
<path id="svg_x5F_inco00_1_" class="st1" d="M113.4,14.2H0c0-1,0-2.1,0-3.1C6.8,10,17.1,8.6,29.8,8.7c10,0.1,17.2,1,19.8,1.3
	c12.1,1.4,31.5,1,63.8-7.3C113.4,6.5,113.4,10.4,113.4,14.2z"/>
</svg>
