<?xml version="1.0" encoding="utf-8"?>
<!-- Generator: Adobe Illustrator 25.2.1, SVG Export Plug-In . SVG Version: 6.00 Build 0)  -->
<svg version="1.1" id="Capa_1" xmlns="http://www.w3.org/2000/svg" xmlns:xlink="http://www.w3.org/1999/xlink" x="0px" y="0px"
	 viewBox="0 0 6 10" style="enable-background:new 0 0 6 10;" xml:space="preserve">
<style type="text/css">
	.st0{fill:#CAE6E2;}
	.st1{fill:#E4F3F9;}
	.st2{fill:#E9E8E8;}
	.st3{fill:#FFFFFF;}
	.st4{fill:#F9F7F6;}
	.st5{fill:#EAEAEA;}
	.st6{fill:#E0E0E0;}
	.st7{fill:#F4F3F4;}
	.st8{fill:#DEE2C3;}
	.st9{fill:#E4EBC5;}
	.st10{fill:#EFEFEF;}
	.st11{fill:#FDDEA9;}
	.st12{fill:#B7D9B4;}
	.st13{fill:#A9C5E9;}
	.st14{fill:#F8CDE2;}
	.st15{fill:#ADDDF8;}
	.st16{fill:#DDD99F;}
	.st17{fill:#65C1C0;}
	.st18{fill:#8DA9D9;}
	.st19{fill:#F6BEAB;}
	.st20{fill:#C7E2C5;}
	.st21{fill:#A2D7E3;}
	.st22{fill:#C6E0DE;}
	.st23{fill:#EFEDED;}
	.st24{fill:#EEEDED;}
	.st25{fill:#DBDBDB;}
	.st26{fill:#BDD6D3;}
	.st27{fill:#C1D8BE;}
	.st28{fill:#EDC6DC;}
	.st29{fill:#A1BEDD;}
	.st30{fill:#9FD4DB;}
	.st31{fill:#E0AFA1;}
	.st32{fill:#B4D1B0;}
	.st33{fill:#61B5B3;}
	.st34{fill:#87A2CC;}
	.st35{fill:#D1CB9A;}
	.st36{fill:#A4D3E8;}
	.st37{fill:#F4D6A7;}
</style>
<path class="st0" d="M0.9,0.6c0.6-0.4,4-0.3,4.4,0.1c0.1,0.1,0.1,0.2,0.1,0.2C5.6,1,5.6,1.2,5.6,1.3c0,0.7-0.1,8.4-0.1,8.4L5.4,9.8
	l-4.6,0L0.6,9.6c0,0,0-2.6,0.1-6.3c0-0.7,0-1.5,0-2.2c0-0.1,0-0.2,0.1-0.3C0.8,0.7,0.9,0.6,0.9,0.6z"/>
<path class="st1" d="M0.9,1.7L0.9,1.7c0,0,3.4,0,3.9,0c0,0,0.9,0,0.6,0l0.1,0.1c0,0-0.1,7.4-0.1,7.8c-1.6,0-3.1,0-4.7-0.1
	C0.8,4.2,0.8,1.7,0.9,1.7L0.9,1.7C0.8,1.7,0.9,1.7,0.9,1.7z"/>
<circle class="st2" cx="3.4" cy="1.1" r="0.2"/>
<circle class="st2" cx="2.6" cy="1.2" r="0.3"/>
<rect x="-0.8" y="3.4" transform="matrix(1.064127e-02 -0.9999 0.9999 1.064127e-02 -2.5946 8.7496)" class="st3" width="7.9" height="4.6"/>
<circle class="st4" cx="2.6" cy="1.2" r="0.3"/>
<circle class="st4" cx="3.4" cy="1.1" r="0.2"/>
<circle class="st5" cx="2.6" cy="1.2" r="0.3"/>
<circle class="st5" cx="3.4" cy="1.1" r="0.2"/>
<circle class="st4" cx="2.6" cy="1.2" r="0.3"/>
<circle class="st4" cx="3.4" cy="1.1" r="0.2"/>
<circle class="st6" cx="2.6" cy="1.2" r="0.3"/>
<circle class="st7" cx="2.6" cy="1.2" r="0.3"/>
<circle class="st6" cx="2.6" cy="1.2" r="0.2"/>
<circle class="st4" cx="2.6" cy="1.2" r="0.2"/>
<rect x="3.2" y="-0.1" transform="matrix(1.064128e-02 -0.9999 0.9999 1.064128e-02 2.7117 3.8068)" class="st8" width="0.1" height="1.3"/>
<path class="st9" d="M0.7,10.3"/>
<circle class="st10" cx="2.6" cy="1.2" r="0.1"/>
<path class="st1" d="M0.9,1.7"/>
<rect x="1.1" y="2.8" transform="matrix(4.280653e-03 -1 1 4.280653e-03 -1.6449 5.0109)" class="st11" width="1.2" height="1.1"/>
<rect x="1.1" y="4.2" transform="matrix(4.280653e-03 -1 1 4.280653e-03 -3.0838 6.4314)" class="st12" width="1.2" height="1.1"/>
<rect x="1.1" y="5.7" transform="matrix(4.280653e-03 -1 1 4.280653e-03 -4.5227 7.852)" class="st13" width="1.2" height="1.1"/>
<rect x="1.1" y="7.1" transform="matrix(4.280653e-03 -1 1 4.280653e-03 -5.9598 9.2707)" class="st14" width="1.2" height="1.1"/>
<rect x="2.5" y="2.8" transform="matrix(4.280653e-03 -1 1 4.280653e-03 -0.2392 6.4348)" class="st15" width="1.2" height="1.1"/>
<rect x="4" y="2.8" transform="matrix(4.280653e-03 -1 1 4.280653e-03 1.2037 7.8962)" class="st16" width="1.2" height="1.1"/>
<rect x="2.5" y="4.2" transform="matrix(4.280653e-03 -1 1 4.280653e-03 -1.6781 7.8553)" class="st17" width="1.2" height="1.1"/>
<rect x="4" y="4.2" transform="matrix(4.280653e-03 -1 1 4.280653e-03 -0.2353 9.3168)" class="st18" width="1.2" height="1.1"/>
<rect x="4" y="5.7" transform="matrix(4.280653e-03 -1 1 4.280653e-03 -1.6742 10.7374)" class="st19" width="1.2" height="1.1"/>
<rect x="4" y="7.2" transform="matrix(4.280653e-03 -1 1 4.280653e-03 -3.1488 12.1932)" class="st20" width="1.2" height="1.1"/>
<rect x="2.5" y="5.7" transform="matrix(4.280653e-03 -1 1 4.280653e-03 -3.117 9.2759)" class="st21" width="1.2" height="1.1"/>
<rect x="2.5" y="7.1" transform="matrix(4.280653e-03 -1 1 4.280653e-03 -4.554 10.6946)" class="st22" width="1.2" height="1.1"/>
<rect x="3" y="-0.4" transform="matrix(4.280653e-03 -1 1 4.280653e-03 1.2273 5.0816)" class="st23" width="0.3" height="4.6"/>
<rect x="2.6" y="6.9" transform="matrix(4.280653e-03 -1 1 4.280653e-03 -6.0906 12.206)" class="st24" width="0.9" height="4.6"/>
<rect x="1.5" y="8.6" transform="matrix(4.280653e-03 -1 1 4.280653e-03 -7.4936 10.7849)" class="st25" width="0.4" height="1.1"/>
<rect x="2.9" y="8.7" transform="matrix(4.280653e-03 -1 1 4.280653e-03 -6.0647 12.2323)" class="st25" width="0.4" height="0.9"/>
<rect x="4.4" y="8.6" transform="matrix(4.280653e-03 -1 1 4.280653e-03 -4.645 13.6703)" class="st25" width="0.4" height="1.1"/>
<rect x="5.1" y="1.8" transform="matrix(4.280653e-03 -1 1 4.280653e-03 3.1801 7.0596)" class="st25" width="0.1" height="0.3"/>
<rect x="4.6" y="1.8" transform="matrix(4.280653e-03 -1 1 4.280653e-03 2.7008 6.574)" class="st25" width="0.1" height="0.3"/>
<rect x="1.9" y="1.6" transform="matrix(4.280653e-03 -1 1 4.280653e-03 6.640615e-02 3.9056)" class="st25" width="0.1" height="0.6"/>
<rect x="2.9" y="7.5" transform="matrix(4.280653e-03 -1 1 4.280653e-03 -4.9476 11.0831)" class="st26" width="0.4" height="1.1"/>
<rect x="4.4" y="7.5" transform="matrix(4.280653e-03 -1 1 4.280653e-03 -3.5048 12.5446)" class="st27" width="0.4" height="1.1"/>
<rect x="1.5" y="7.5" transform="matrix(4.280653e-03 -1 1 4.280653e-03 -6.3533 9.6592)" class="st28" width="0.4" height="1.1"/>
<rect x="1.5" y="6.1" transform="matrix(4.280653e-03 -1 1 4.280653e-03 -4.9144 8.2387)" class="st29" width="0.4" height="1.1"/>
<rect x="2.9" y="6.1" transform="matrix(4.280653e-03 -1 1 4.280653e-03 -3.5105 9.6607)" class="st30" width="0.4" height="1.1"/>
<rect x="4.4" y="6.1" transform="matrix(4.280653e-03 -1 1 4.280653e-03 -2.0658 11.124)" class="st31" width="0.4" height="1.1"/>
<rect x="1.5" y="4.6" transform="matrix(4.280653e-03 -1 1 4.280653e-03 -3.4773 6.82)" class="st32" width="0.4" height="1.1"/>
<rect x="2.9" y="4.6" transform="matrix(4.280653e-03 -1 1 4.280653e-03 -2.0735 8.242)" class="st33" width="0.4" height="1.1"/>
<rect x="4.4" y="4.6" transform="matrix(4.280653e-03 -1 1 4.280653e-03 -0.6288 9.7053)" class="st34" width="0.4" height="1.1"/>
<rect x="4.4" y="3.2" transform="matrix(4.280653e-03 -1 1 4.280653e-03 0.8101 8.2848)" class="st35" width="0.4" height="1.1"/>
<rect x="2.9" y="3.2" transform="matrix(4.280653e-03 -1 1 4.280653e-03 -0.6327 6.8233)" class="st36" width="0.4" height="1.1"/>
<rect x="1.5" y="3.2" transform="matrix(4.280653e-03 -1 1 4.280653e-03 -2.0384 5.3994)" class="st37" width="0.4" height="1.1"/>
</svg>
