<svg xmlns="http://www.w3.org/2000/svg" viewBox="0 0 145.91 194.02"><defs><style>.a28d6dc8-6acd-4581-944a-ffa70065ed1f{fill:#eaead7;}.aceb8b71-8a88-48a7-9bdd-ed1c7ea161bd{fill:#e0dfc6;}.eaca4c68-eecf-457a-bc08-d47d13f88641{fill:#f4f2f1;}.ef2f5dd9-1764-49fa-90b7-b63b2048c171{fill:#8eacad;}.bcc3e86c-6ac2-472b-bf89-1159df5c1f87{fill:#646362;}.e10bf31a-f071-459a-bc04-3cf2ab958380{fill:#a3bbc1;}.bcdf9ebd-fc5d-4478-b8bf-b25fc7cad31b{fill:#c0ccce;}.f0303796-4c44-45d7-bc37-823f40c81c5d{fill:#96b5bc;}.f9672c49-57b6-4f22-a2f9-c19b8c6b30d0{fill:#97b3b8;}.b0466e96-fa0e-4f3b-a1d4-91e264481e8f{fill:#58595a;}.b4ebc579-5094-4d51-9d20-8460621e879a{fill:#5b5c5c;}.bddf8e2f-d224-4587-929b-891d9fb558d9{fill:#a9bfc4;}.a03ec601-97dd-4d51-9807-0116d488c4a6{fill:#fff;opacity:0.33;isolation:isolate;}</style></defs><g id="bdae47be-dd21-401d-9eb6-2f2cfe38a0b4" data-name="Capa 2"><g id="b9133390-d916-43cd-9be9-dab38a8a70c1" data-name="Capa 1"><path class="a28d6dc8-6acd-4581-944a-ffa70065ed1f" d="M102,43.52c-1.2,6.3-4.8,24.2-15.2,28.4a19.29,19.29,0,0,1-8.7,1.1,22.54,22.54,0,0,1-8.2-2.9c-11-6.8-12.6-28.4-12.8-31.2-.7-9-1.4-18.4,4.3-26.8.8-1.1,7.6-10.8,18.8-10.8,10.3,0,18.4,8.3,21.8,16.7S104,33.82,102,43.52Z"/><path class="aceb8b71-8a88-48a7-9bdd-ed1c7ea161bd" d="M91.75,69.62c-1.1.9-7.2,5.8-15.2,3.9a19.46,19.46,0,0,1-10.8-7.3,41.32,41.32,0,0,0,11.6,3.9,24.47,24.47,0,0,0,3.7.3,25,25,0,0,0,5.5-.7c3.4-.9,9.1-6.2,12.9-15.2,4.6-11.1,3.7-21.5,3-28.3a66.74,66.74,0,0,0-1.8-10.2,46.7,46.7,0,0,1,3.1,11.6C106.55,48.82,94.65,65.72,91.75,69.62Z"/><path class="eaca4c68-eecf-457a-bc08-d47d13f88641" d="M77.45,117.52c-23-37.7-27.1-49.1-24.8-50.9a38.69,38.69,0,0,0,5.5-3.1c2.9-2.1,2.9-2.2,3.3-2.2,1.5.3.8,4.6,3.8,9.5a19.71,19.71,0,0,0,2.2,2.9c3.1,3.2,7.3,4,9.9,4.2a16.78,16.78,0,0,0,9.6-1.2,17.81,17.81,0,0,0,3.2-2.1,21.31,21.31,0,0,0,4.6-6c1.5-2.6,1.6-3.6,2.5-3.8,1.8-.4,4.1,3.4,4.4,3.9C106.05,75.82,88.15,102.52,77.45,117.52Z"/><path class="ef2f5dd9-1764-49fa-90b7-b63b2048c171" d="M79.25,88.72c-2.4.2-4.5-2.6-6.6-5.4a31.14,31.14,0,0,1-4.2-8,16.25,16.25,0,0,0,20.5,0c-1.1,2-2.6,4.7-4.6,7.7C81.15,88,80.15,88.62,79.25,88.72Z"/><path class="ef2f5dd9-1764-49fa-90b7-b63b2048c171" d="M81.15,114.72c-.1.4-1.7,5.5-3.2,5.4-.7-.1-1-1.6-3.2-6.5a8.81,8.81,0,0,0-.7-1.4c.2-6.9.3-13.8.5-20.6a4.48,4.48,0,0,1,5-3.7,4.61,4.61,0,0,1,3.5,3.7C84.05,102.62,82.55,110.12,81.15,114.72Z"/><path class="bcc3e86c-6ac2-472b-bf89-1159df5c1f87" d="M136.85,163.42c-3.7-.2-9.1-.5-15.7-.6-12.3-.3-18.5-.4-27,0s-12.8,1.2-20.7.4a75.33,75.33,0,0,1-9.3-1.5h0c-1.7-.3-2.9-.4-2.9-.4-22.4-3.4-46.9,1.6-46.9,1.6-7.9,1.6-11.9,3.1-13.8.9-1.1-1.2-.8-2.6,3.1-17.6a84.73,84.73,0,0,1,3.7-11.8c3.6-8.8,6.1-8,7.5-13.6,2.7-10.9-.9-24.9,3.5-31.5.4-.5.7-1,1.1-1.5A30.09,30.09,0,0,1,28,81c6.2-3.4,12-5.5,17.8-8.1,2.8-1.2,7-3.2,12.2-6a47.9,47.9,0,0,0,2.6,9.5,19.08,19.08,0,0,0,1,2.3c1.3,2.6,3.1,5,9.1,14.5,5.3,8.5,6.6,11.4,8.8,11.2,1.6-.1,2.6-1.6,5.9-7.9,5.1-9.5,7.9-14.7,8.7-16.8a5.82,5.82,0,0,1,.5-1.1c.3-.8.6-1.4.6-1.5.6-1.5.9-2.2,4.3-9,2.6,2.1,6.5,5.3,11.3,9,15.2,11.6,16.6,10.7,19.8,15,7.4,9.8,6.3,23.4,6.3,30.9.1,9.4-1.4,14.3-.8,28A109.4,109.4,0,0,0,136.85,163.42Z"/><path class="e10bf31a-f071-459a-bc04-3cf2ab958380" d="M145.65,194H.65a7.44,7.44,0,0,1-.3-1.7,6.38,6.38,0,0,1,.3-2.6v-89h0l.4-.5c53.2-1,59.4-1,59.4-1,20.4-.2,49.2-.2,84.9,1,.1.1.3.3.3.4v.1c-.9,9,0,39.8,0,39.8.6,18.6-.1,45.8,0,49.3v.1a10.85,10.85,0,0,0,.2,1.7A5.45,5.45,0,0,1,145.65,194Z"/><rect class="bcdf9ebd-fc5d-4478-b8bf-b25fc7cad31b" x="0.65" y="187.62" width="145" height="2.2"/><rect class="f0303796-4c44-45d7-bc37-823f40c81c5d" x="2.85" y="102.02" width="140.7" height="84"/><rect class="f9672c49-57b6-4f22-a2f9-c19b8c6b30d0" x="36.75" y="118.62" width="72.8" height="43.4"/><path class="b0466e96-fa0e-4f3b-a1d4-91e264481e8f" d="M103.55,40.12c-.3-13.8-3.5-17.8-6.3-18.9-3.5-1.4-5.7,2-13.3,3.1-10.6,1.5-15.2-3.8-20.4-1-2.8,1.5-5.8,5.5-6.1,16.5A29.88,29.88,0,0,1,55,27.32c0-2.6.2-12,7.4-19.3,5.3-5.4,11.7-6.5,16.4-7.3,6.2-1.1,18.7-1.7,21.3,4a6.16,6.16,0,0,1,.4,3.7,9.56,9.56,0,0,1,2.3.7s.7.4,1.4.9c1.2,1,5,7.7,3.1,18.7A41.83,41.83,0,0,1,103.55,40.12Z"/><path class="b4ebc579-5094-4d51-9d20-8460621e879a" d="M96.25,11.62a17.7,17.7,0,0,1-15.1,9.9,17.84,17.84,0,0,1-16.7-10.8c4.7-2.4,9.4-4.9,14.1-7.3h12.5c2,.9,4.1,1.9,6.1,2.8Z"/><path class="b4ebc579-5094-4d51-9d20-8460621e879a" d="M107.25,20.42c.6,5.3-1.9,10.8-3.5,10.7-1.3-.1-.8-4.1-3.8-8.6a19.09,19.09,0,0,0-6.1-5.8c.8-4.7,3.5-8,6.4-8.3a4.82,4.82,0,0,1,2.8.6c.9,1.1,1.8,2.1,2.7,3.2.3,1.8.5,3.6.8,5.4A9.52,9.52,0,0,1,107.25,20.42Z"/><rect class="bddf8e2f-d224-4587-929b-891d9fb558d9" x="52.95" y="130.92" width="40.5" height="13.5"/><path class="a03ec601-97dd-4d51-9807-0116d488c4a6" d="M145.62,99.51H.62c4.5-14.42,14.8-39.1,38.3-57.78,10.3-8.23,23.7-18.89,41.5-17.57,16.5,1.32,27.5,12.29,36.4,21.12C135.22,63.76,142.52,85.7,145.62,99.51Z"/></g></g></svg>