<?xml version="1.0" encoding="utf-8"?>
<!-- Generator: Adobe Illustrator 25.2.1, SVG Export Plug-In . SVG Version: 6.00 Build 0)  -->
<svg version="1.1" id="Capa_1" xmlns="http://www.w3.org/2000/svg" xmlns:xlink="http://www.w3.org/1999/xlink" x="0px" y="0px"
	 viewBox="0 0 113.4 14.2" style="enable-background:new 0 0 113.4 14.2;" xml:space="preserve">
<style type="text/css">
	.st0{fill:#4F8BA3;}
	.st1{fill:#3696CE;}
</style>
<path id="svg_x5F_inco01" class="st0" d="M113.3,13.9H0.1c3.1-3.2,5.8-4,7.7-4.1c4.3-0.3,5.9,2.8,10.4,2c2.7-0.5,3.2-1.7,6.3-1.8
	c2.2-0.1,2.1,0.6,5.4,0.9c3.1,0.2,5.8-0.2,7.5-0.6c1.2-0.3,1.3-0.4,2-0.4c0.8-0.1,1.9-0.1,4.1,0.4c3,0.8,3.5,1.5,6.3,1.9
	c0.6,0.1,1.2,0.2,2,0.2c2.7,0,4.5-1.3,10.6-1.6c2.7-0.1,2.9,0.2,5.9,0.1c9.9-0.4,12.8-2.8,19.9-2.4c0.8,0,0.9,0,11.5,2.4
	C105.6,12.3,110.4,13.3,113.3,13.9z"/>
<path id="svg_x5F_inco00_1_" class="st1" d="M113.3,14.2H0.1c0-0.1,0-0.2,0-0.3c6.3-4.5,9.9-4.5,12.2-3.6c1.8,0.7,2.4,1.8,4.5,2
	c2.7,0.3,3.8-1.3,7-1.8c2.1-0.3,2.6,0.2,4.2,0.6c0.7,0.2,1.3,0.2,2,0.2c3,0.1,5.3-1.2,9.4-1.2c1,0,2.2,0,3.6,0.4
	c1.1,0.3,2.2,0.8,3.2,1.2c0.9,0.4,1.3,0.6,1.6,0.7c3.8,1.3,6.5-0.7,11.5-1.4c3.8-0.6,3.9,0.7,10.2,0.4c11.6-0.6,15.9-3.7,24.2-1.3
	c1,0.3,2.4,0.7,4.3,1.2c1.3,0.3,2.3,0.4,2.6,0.4C102.5,12,106,12.6,113.3,14.2z"/>
</svg>
