<?xml version="1.0" encoding="utf-8"?>
<!-- Generator: Adobe Illustrator 25.2.1, SVG Export Plug-In . SVG Version: 6.00 Build 0)  -->
<svg version="1.1" id="Capa_1" xmlns="http://www.w3.org/2000/svg" xmlns:xlink="http://www.w3.org/1999/xlink" x="0px" y="0px"
	 viewBox="0 0 113.4 14.2" style="enable-background:new 0 0 113.4 14.2;" xml:space="preserve">
<style type="text/css">
	.st0{fill:#4F8BA3;}
	.st1{fill:#3696CE;}
</style>
<path id="svg_x5F_inco01" class="st0" d="M113.4,14.2c-37.8,0-75.6,0-113.4,0c2.6-1.2,6.3-2.8,11.1-3.8c3.6-0.8,5.6-1.2,8.3-1.1
	c7.2,0.5,8.5,4.5,14.1,4.2c3.6-0.2,2.8-1.8,9.1-3.4C47,9,51.1,8,55.2,9.7c2.6,1.1,3.1,2.3,6,3.1c2,0.6,3.8,0.6,6,0.5
	c2.2-0.1,2.4-0.3,4.2-0.4c4.1-0.2,4.9,1,7.9,1c1.7,0,1.2-0.4,8.1-2.9c4.9-1.7,7-2.2,9.5-1.7c1,0.2,0.6,0.3,2.6,0.9
	c3.7,1.1,5.3,1,7.9,1.6C109,12.2,111,12.8,113.4,14.2z"/>
<path id="svg_x5F_inco00_1_" class="st1" d="M113.4,14.2c-37.8,0-75.6,0-113.4,0c5-2.1,9.3-3.1,12.3-3.7c1.2-0.2,6.1-1,10.4-0.6
	c0.5,0,1.3,0.1,2.4,0.3c5.3,1,5.7,3.1,8.5,3.3c3.2,0.2,4.5-2.1,10.1-3.7c0.7-0.2,1.9-0.5,3.5-0.7c0,0,1.4-0.1,2.8-0.1
	c3.9,0.2,7.1,3.1,11.6,4.3c1,0.3,2.8,0.4,6.4,0.5c9.1,0.4,14.2,0.5,19.1-2c1.8-0.9,1.7-1.2,3.1-1.8C93.1,9,96,9.2,102.7,11
	C105.6,11.7,109.3,12.8,113.4,14.2z"/>
</svg>
