<?xml version="1.0" encoding="utf-8"?>
<!-- Generator: Adobe Illustrator 25.2.1, SVG Export Plug-In . SVG Version: 6.00 Build 0)  -->
<svg version="1.1" id="Capa_1" xmlns="http://www.w3.org/2000/svg" xmlns:xlink="http://www.w3.org/1999/xlink" x="0px" y="0px"
	 viewBox="0 0 113.4 14.2" style="enable-background:new 0 0 113.4 14.2;" xml:space="preserve">
<style type="text/css">
	.st0{fill:#4B8FAA;}
	.st1{fill:#3696CE;}
</style>
<path class="st0" d="M113.4,14.2H0c2.4-0.6,4.3-1.1,5.8-1.4c5.7-1.2,8.6-1.8,11.2-1.1c1.3,0.4,1.9,0.8,3.2,0.7
	c1.6,0,3.7-0.6,5.3-1.1c0.2-0.1,0.8-0.2,1.5-0.2c2.5-0.1,2.8,1.5,5.4,1.5c2.3-0.1,2.6-1.3,5.6-2.1c3.1-0.9,5.7-0.4,6.9-0.2
	c4.5,0.9,4.4,3,7.4,2.9c0.6,0,1-0.1,1.3-0.2c1.6-0.5,3.8-1.6,5-2c2.3-0.8,2.2,0.6,5.4,0c0,0,5.6-1.1,6.2-0.8
	c0.4,0.2,0.4,0.2,0.4,0.2c0.2,0.1,0.2,0.1,0.3,0.1c0,0,0.1,0,0.2,0.1c0.7,0.2,1.4,0.1,1.4,0.1c0.9-0.2,2.9,0.6,5.2,0.9
	c2.9,0.3,3.4-0.5,5.1,0.2c0.9,0.4,1.1,0.8,2.3,1.2c0.3,0.1,1.5,0.5,3.1,0.3c1.6-0.1,2.5-0.7,3.8-1.2c1.9-0.7,3.4-0.9,5.4-1.2
	c2-0.3,4.9-0.5,8.7,0.1C108.5,12,111,13.1,113.4,14.2z"/>
<path class="st1" d="M113.4,14.2H0c3,0.1,5.1-0.4,6.6-1c0.9-0.3,1.3-0.6,2.3-0.9c0.9-0.3,2.6-0.7,5.3-0.6c4.3,0.2,4.9,1.4,7.6,0.9
	c1.7-0.3,3.5-0.8,3.5-0.8c1.3-0.4,1.1-0.4,1.5-0.5c2.2-0.4,2.9,1.4,5.4,1.4c0.7,0,1.3-0.2,2.5-0.5c1.5-0.4,1.8-0.9,3.1-1.2
	c2.1-0.6,4.9-1.1,7-0.7c0.8,0.1,1.4,0.4,1.4,0.4c1.1,0.4,1.8,0.9,2.1,1.1c0.8,0.5,2.8,1.3,4,1.4c2.8,0.4,3.3-1.6,7.3-2.1
	c2.7-0.3,2.6,0.6,5.3,0.1c2.1-0.4,3.9-1.2,5.1-0.7c0.2,0.1,1,0.4,2.1,0.3c0.1,0,0.2,0,0.3,0c1.2-0.2,3.3,0.5,3.8,0.7
	c2.5,0.8,3.8-0.4,5.7,0.2c1.2,0.4,2.3,1,2.3,1c0.1,0.1,0.1,0.1,0.2,0.1c1.6,0.9,3.2,0.6,4.5,0.4c1-0.2,1.7-0.5,1.8-0.5
	c2.7-1,6.5-1.8,9.7-1.8c3.6-0.1,5.6-0.1,7.4,1.1c0.6,0.4,1.8,1.3,3.8,1.9C112.3,14.1,113,14.2,113.4,14.2z"/>
<path class="st0" d="M25.8,9.9"/>
</svg>
